<svg version="1.1" viewBox="0.0 0.0 192.0 124.61417322834646" fill="none" stroke="none" stroke-linecap="square" stroke-miterlimit="10" xmlns:xlink="http://www.w3.org/1999/xlink" xmlns="http://www.w3.org/2000/svg"><clipPath id="p.0"><path d="m0 0l192.0 0l0 124.614174l-192.0 0l0 -124.614174z" clip-rule="nonzero"/></clipPath><g clip-path="url(#p.0)"><path fill="#000000" fill-opacity="0.0" d="m0 0l192.0 0l0 124.614174l-192.0 0z" fill-rule="evenodd"/><g filter="url(#shadowFilter-p.1)"><use xlink:href="#p.1" transform="matrix(1.0 0.0 0.0 1.0 0.0 2.0)"/></g><defs><filter id="shadowFilter-p.1" filterUnits="userSpaceOnUse"><feGaussianBlur in="SourceAlpha" stdDeviation="2.0" result="blur"/><feComponentTransfer in="blur" color-interpolation-filters="sRGB"><feFuncR type="linear" slope="0" intercept="0.0"/><feFuncG type="linear" slope="0" intercept="0.0"/><feFuncB type="linear" slope="0" intercept="0.0"/><feFuncA type="linear" slope="0.5" intercept="0"/></feComponentTransfer></filter></defs><g id="p.1"><defs><linearGradient id="p.2" gradientUnits="userSpaceOnUse" gradientTransform="matrix(9.548983787656509 0.0 0.0 9.548983787656509 0.0 0.0)" spreadMethod="pad" x1="19.522903029264377" y1="11.299592627221585" x2="19.523008250640828" y2="1.7506088401448006"><stop offset="0.0" stop-color="#1e50a2"/><stop offset="0.5" stop-color="#a0d8ef"/><stop offset="1.0" stop-color="#ffffff"/></linearGradient></defs><path fill="url(#p.2)" d="m5.4160104 31.91369l0 0c0 -8.393158 6.8039975 -15.197155 15.197155 -15.197155l150.61357 0c4.030533 0 7.895996 1.6011238 10.746017 4.4511433c2.850006 2.8500195 4.4511414 6.715475 4.4511414 10.746012l0 60.786797c0 8.393158 -6.804001 15.197151 -15.197159 15.197151l-150.61357 0c-8.393157 0 -15.197155 -6.803993 -15.197155 -15.197151z" fill-rule="evenodd"/><path stroke="#1c4587" stroke-width="2.0" stroke-linejoin="round" stroke-linecap="butt" d="m5.4160104 31.91369l0 0c0 -8.393158 6.8039975 -15.197155 15.197155 -15.197155l150.61357 0c4.030533 0 7.895996 1.6011238 10.746017 4.4511433c2.850006 2.8500195 4.4511414 6.715475 4.4511414 10.746012l0 60.786797c0 8.393158 -6.804001 15.197151 -15.197159 15.197151l-150.61357 0c-8.393157 0 -15.197155 -6.803993 -15.197155 -15.197151z" fill-rule="evenodd"/></g><g filter="url(#shadowFilter-p.3)"><use xlink:href="#p.3" transform="matrix(1.0 0.0 0.0 1.0 0.0 2.0)"/></g><defs><filter id="shadowFilter-p.3" filterUnits="userSpaceOnUse"><feGaussianBlur in="SourceAlpha" stdDeviation="2.0" result="blur"/><feComponentTransfer in="blur" color-interpolation-filters="sRGB"><feFuncR type="linear" slope="0" intercept="0.0"/><feFuncG type="linear" slope="0" intercept="0.0"/><feFuncB type="linear" slope="0" intercept="0.0"/><feFuncA type="linear" slope="0.5" intercept="0"/></feComponentTransfer></filter></defs><g id="p.3"><defs><linearGradient id="p.4" gradientUnits="userSpaceOnUse" gradientTransform="matrix(6.385583583431216 0.0 0.0 6.385583583431216 0.0 0.0)" spreadMethod="pad" x1="21.11072643425516" y1="12.948512532144944" x2="21.110797080184334" y2="6.56292894910452"><stop offset="0.0" stop-color="#1e50a2"/><stop offset="0.5" stop-color="#a0d8ef"/><stop offset="1.0" stop-color="#ffffff"/></linearGradient></defs><path fill="url(#p.4)" d="m70.55264 51.025173c0.537323 6.7832108 1.074646 12.483456 1.6119614 17.100742l-3.6269073 0c0.2686615 -3.6098785 0.9403076 -9.310127 2.014946 -17.100742zm-8.110165 -9.117039l-5.389984 40.77482l10.981464 0l0.6296768 -7.328888l3.803215 0l0.52892303 7.328888l10.85553 0l-6.07003 -40.77482z" fill-rule="evenodd"/><defs><linearGradient id="p.5" gradientUnits="userSpaceOnUse" gradientTransform="matrix(6.385583583431216 0.0 0.0 6.385583583431216 0.0 0.0)" spreadMethod="pad" x1="21.11072643425516" y1="12.948512532144944" x2="21.110797080184334" y2="6.56292894910452"><stop offset="0.0" stop-color="#1e50a2"/><stop offset="0.5" stop-color="#a0d8ef"/><stop offset="1.0" stop-color="#ffffff"/></linearGradient></defs><path fill="url(#p.5)" d="m96.268425 48.88443c1.2257614 0 2.0681229 0.20148087 2.5270844 0.6044464c0.46455383 0.40296173 0.69683075 1.2508621 0.69683075 2.5437012l0 2.2414818c0 1.7965469 -0.24066925 2.8599205 -0.722023 3.1901245c-0.47574615 0.32461166 -1.3097153 0.4869156 -2.501892 0.4869156l0 -9.066669zm-10.603668 -6.9762955l0 40.77482l10.603668 0l0 -18.385185c1.4608383 0 2.361969 0.26024628 2.703392 0.78073883c0.34701538 0.52049255 0.5205231 1.8721008 0.5205231 4.054817l0 13.549629l9.848061 0l0 -10.754074c0 -3.290863 -0.08955383 -5.3000793 -0.26865387 -6.0276566c-0.17351532 -0.73316956 -0.62127686 -1.536293 -1.3432999 -2.4093819c-0.722023 -0.873085 -2.132492 -1.5698776 -4.231392 -2.0903702c2.3171844 -0.21827316 3.8703766 -0.87308884 4.659569 -1.964447c0.7891846 -1.0913582 1.1837769 -3.2237015 1.1837769 -6.3970375c0 -3.4755554 -0.55970764 -6.005268 -1.6791229 -7.589134c-1.1138153 -1.5894661 -2.5578613 -2.5772858 -4.332138 -2.963459c-1.7686768 -0.38617325 -5.154907 -0.57925797 -10.158699 -0.57925797z" fill-rule="evenodd"/><defs><linearGradient id="p.6" gradientUnits="userSpaceOnUse" gradientTransform="matrix(6.385583583431216 0.0 0.0 6.385583583431216 0.0 0.0)" spreadMethod="pad" x1="21.11072643425516" y1="12.948512532144944" x2="21.110797080184334" y2="6.56292894910452"><stop offset="0.0" stop-color="#1e50a2"/><stop offset="0.5" stop-color="#a0d8ef"/><stop offset="1.0" stop-color="#ffffff"/></linearGradient></defs><path fill="url(#p.6)" d="m111.63241 41.908134l0 8.16l6.2715225 0l0 32.61482l10.603668 0l0 -32.61482l6.296707 0l0 -8.16z" fill-rule="evenodd"/><path stroke="#1c4587" stroke-width="2.0" stroke-linejoin="round" stroke-linecap="butt" d="m70.55264 51.025173c0.537323 6.7832108 1.074646 12.483456 1.6119614 17.100742l-3.6269073 0c0.2686615 -3.6098785 0.9403076 -9.310127 2.014946 -17.100742zm-8.110165 -9.117039l-5.389984 40.77482l10.981464 0l0.6296768 -7.328888l3.803215 0l0.52892303 7.328888l10.85553 0l-6.07003 -40.77482z" fill-rule="evenodd"/><path stroke="#1c4587" stroke-width="2.0" stroke-linejoin="round" stroke-linecap="butt" d="m96.268425 48.88443c1.2257614 0 2.0681229 0.20148087 2.5270844 0.6044464c0.46455383 0.40296173 0.69683075 1.2508621 0.69683075 2.5437012l0 2.2414818c0 1.7965469 -0.24066925 2.8599205 -0.722023 3.1901245c-0.47574615 0.32461166 -1.3097153 0.4869156 -2.501892 0.4869156l0 -9.066669zm-10.603668 -6.9762955l0 40.77482l10.603668 0l0 -18.385185c1.4608383 0 2.361969 0.26024628 2.703392 0.78073883c0.34701538 0.52049255 0.5205231 1.8721008 0.5205231 4.054817l0 13.549629l9.848061 0l0 -10.754074c0 -3.290863 -0.08955383 -5.3000793 -0.26865387 -6.0276566c-0.17351532 -0.73316956 -0.62127686 -1.536293 -1.3432999 -2.4093819c-0.722023 -0.873085 -2.132492 -1.5698776 -4.231392 -2.0903702c2.3171844 -0.21827316 3.8703766 -0.87308884 4.659569 -1.964447c0.7891846 -1.0913582 1.1837769 -3.2237015 1.1837769 -6.3970375c0 -3.4755554 -0.55970764 -6.005268 -1.6791229 -7.589134c-1.1138153 -1.5894661 -2.5578613 -2.5772858 -4.332138 -2.963459c-1.7686768 -0.38617325 -5.154907 -0.57925797 -10.158699 -0.57925797z" fill-rule="evenodd"/><path stroke="#1c4587" stroke-width="2.0" stroke-linejoin="round" stroke-linecap="butt" d="m111.63241 41.908134l0 8.16l6.2715225 0l0 32.61482l10.603668 0l0 -32.61482l6.296707 0l0 -8.16z" fill-rule="evenodd"/></g></g></svg>