<svg version="1.1" viewBox="0.0 0.0 192.0 124.61417322834646" fill="none" stroke="none" stroke-linecap="square" stroke-miterlimit="10" xmlns:xlink="http://www.w3.org/1999/xlink" xmlns="http://www.w3.org/2000/svg"><clipPath id="p.0"><path d="m0 0l192.0 0l0 124.614174l-192.0 0l0 -124.614174z" clip-rule="nonzero"/></clipPath><g clip-path="url(#p.0)"><path fill="#000000" fill-opacity="0.0" d="m0 0l192.0 0l0 124.614174l-192.0 0z" fill-rule="evenodd"/><g filter="url(#shadowFilter-p.1)"><use xlink:href="#p.1" transform="matrix(1.0 0.0 0.0 1.0 0.0 2.0)"/></g><defs><filter id="shadowFilter-p.1" filterUnits="userSpaceOnUse"><feGaussianBlur in="SourceAlpha" stdDeviation="2.0" result="blur"/><feComponentTransfer in="blur" color-interpolation-filters="sRGB"><feFuncR type="linear" slope="0" intercept="0.0"/><feFuncG type="linear" slope="0" intercept="0.0"/><feFuncB type="linear" slope="0" intercept="0.0"/><feFuncA type="linear" slope="0.5" intercept="0"/></feComponentTransfer></filter></defs><g id="p.1"><defs><linearGradient id="p.2" gradientUnits="userSpaceOnUse" gradientTransform="matrix(9.552566506173404 0.0 0.0 9.552566506173404 0.0 0.0)" spreadMethod="pad" x1="19.519294471836446" y1="11.29514539081423" x2="19.51557875977192" y2="1.7425796073008923"><stop offset="0.0" stop-color="#1e50a2"/><stop offset="0.5" stop-color="#a0d8ef"/><stop offset="1.0" stop-color="#ffffff"/></linearGradient></defs><path fill="url(#p.2)" d="m5.4160104 31.91369l0 0c0 -8.393158 6.8039975 -15.197155 15.197155 -15.197155l150.61357 0c4.030533 0 7.895996 1.6011238 10.746017 4.4511433c2.850006 2.8500195 4.4511414 6.715475 4.4511414 10.746012l0 60.786797c0 8.393158 -6.804001 15.197151 -15.197159 15.197151l-150.61357 0c-8.393157 0 -15.197155 -6.803993 -15.197155 -15.197151z" fill-rule="evenodd"/><path stroke="#1c4587" stroke-width="2.0" stroke-linejoin="round" stroke-linecap="butt" d="m5.4160104 31.91369l0 0c0 -8.393158 6.8039975 -15.197155 15.197155 -15.197155l150.61357 0c4.030533 0 7.895996 1.6011238 10.746017 4.4511433c2.850006 2.8500195 4.4511414 6.715475 4.4511414 10.746012l0 60.786797c0 8.393158 -6.804001 15.197151 -15.197159 15.197151l-150.61357 0c-8.393157 0 -15.197155 -6.803993 -15.197155 -15.197151z" fill-rule="evenodd"/></g><g filter="url(#shadowFilter-p.3)"><use xlink:href="#p.3" transform="matrix(1.0 0.0 0.0 1.0 0.0 2.0)"/></g><defs><filter id="shadowFilter-p.3" filterUnits="userSpaceOnUse"><feGaussianBlur in="SourceAlpha" stdDeviation="2.0" result="blur"/><feComponentTransfer in="blur" color-interpolation-filters="sRGB"><feFuncR type="linear" slope="0" intercept="0.0"/><feFuncG type="linear" slope="0" intercept="0.0"/><feFuncB type="linear" slope="0" intercept="0.0"/><feFuncA type="linear" slope="0.5" intercept="0"/></feComponentTransfer></filter></defs><g id="p.3"><defs><linearGradient id="p.4" gradientUnits="userSpaceOnUse" gradientTransform="matrix(6.521371214810572 0.0 0.0 6.521371214810572 0.0 0.0)" spreadMethod="pad" x1="22.776523042895256" y1="12.810776632487583" x2="22.773985580193717" y2="6.289405911339847"><stop offset="0.0" stop-color="#1e50a2"/><stop offset="0.5" stop-color="#a0d8ef"/><stop offset="1.0" stop-color="#ffffff"/></linearGradient></defs><path fill="url(#p.4)" d="m55.83 41.056427c-2.3003998 0 -4.337734 0.3917694 -6.112011 1.1753082c-1.768673 0.77794266 -3.1539536 1.8469162 -4.1558304 3.206913c-0.99627686 1.3600006 -1.5951691 2.7759705 -1.7966614 4.247902c-0.20149612 1.4663391 -0.30224228 3.668644 -0.30224228 6.6069145l0 11.912598c0 3.996048 0.3274269 6.990288 0.98228836 8.982719c0.65485764 1.986824 1.9897614 3.5427094 4.0047073 4.6676483c2.0149498 1.124939 4.575611 1.6874084 7.6819916 1.6874084c2.988842 0 5.5019264 -0.663208 7.5392647 -1.989624c2.0429306 -1.3264236 3.3610458 -2.8711166 3.954338 -4.634079c0.5988846 -1.7629623 0.8983307 -4.751602 0.8983307 -8.965927l0 -1.5866699l-10.603668 0l0 5.1125946c0 2.2330856 -0.12313461 3.6518555 -0.36940384 4.256302c-0.24067307 0.6044388 -0.7556076 0.906662 -1.544796 0.906662c-0.82276917 0 -1.351696 -0.3022232 -1.5867729 -0.906662c-0.2350769 -0.6044464 -0.35261536 -1.8972855 -0.35261536 -3.8785248l0 -18.939259c0 -2.0651855 0.11753845 -3.4083977 0.35261536 -4.0296288c0.2350769 -0.6212349 0.7891884 -0.93185425 1.6623344 -0.93185425c0.7723961 0 1.2705383 0.2574501 1.4944191 0.7723465c0.22948074 0.50930023 0.3442192 1.7965431 0.3442192 3.8617287l0 7.1022224l10.603668 0l0 -3.8785172c0 -3.8113594 -0.31903076 -6.6181107 -0.9570999 -8.42025c-0.63806915 -1.8077354 -1.972969 -3.3160477 -4.004711 -4.5249367c-2.0317383 -1.208889 -4.6091957 -1.8133354 -7.7323647 -1.8133354z" fill-rule="evenodd"/><defs><linearGradient id="p.5" gradientUnits="userSpaceOnUse" gradientTransform="matrix(6.521371214810572 0.0 0.0 6.521371214810572 0.0 0.0)" spreadMethod="pad" x1="22.776523042895256" y1="12.810776632487583" x2="22.773985580193717" y2="6.289405911339847"><stop offset="0.0" stop-color="#1e50a2"/><stop offset="0.5" stop-color="#a0d8ef"/><stop offset="1.0" stop-color="#ffffff"/></linearGradient></defs><path fill="url(#p.5)" d="m72.32739 41.912724l0 40.774822l10.603668 0l0 -17.12593l3.1735382 0l0 17.12593l10.603668 0l0 -40.774822l-10.603668 0l0 14.582226l-3.1735382 0l0 -14.582226z" fill-rule="evenodd"/><defs><linearGradient id="p.6" gradientUnits="userSpaceOnUse" gradientTransform="matrix(6.521371214810572 0.0 0.0 6.521371214810572 0.0 0.0)" spreadMethod="pad" x1="22.776523042895256" y1="12.810776632487583" x2="22.773985580193717" y2="6.289405911339847"><stop offset="0.0" stop-color="#1e50a2"/><stop offset="0.5" stop-color="#a0d8ef"/><stop offset="1.0" stop-color="#ffffff"/></linearGradient></defs><path fill="url(#p.6)" d="m112.047066 51.029762c0.53731537 6.7832108 1.0746384 12.483459 1.6119537 17.100746l-3.6269073 0c0.2686615 -3.6098785 0.9403076 -9.310127 2.0149536 -17.100746zm-8.110168 -9.117039l-5.3899918 40.774822l10.981468 0l0.6296768 -7.328888l3.803215 0l0.52892303 7.328888l10.85553 0l-6.07003 -40.774822zm21.408821 0l0 8.16l6.27153 0l0 32.614822l10.603668 0l0 -32.614822l6.296707 0l0 -8.16z" fill-rule="evenodd"/><path stroke="#1c4587" stroke-width="2.0" stroke-linejoin="round" stroke-linecap="butt" d="m55.83 41.056427c-2.3003998 0 -4.337734 0.3917694 -6.112011 1.1753082c-1.768673 0.77794266 -3.1539536 1.8469162 -4.1558304 3.206913c-0.99627686 1.3600006 -1.5951691 2.7759705 -1.7966614 4.247902c-0.20149612 1.4663391 -0.30224228 3.668644 -0.30224228 6.6069145l0 11.912598c0 3.996048 0.3274269 6.990288 0.98228836 8.982719c0.65485764 1.986824 1.9897614 3.5427094 4.0047073 4.6676483c2.0149498 1.124939 4.575611 1.6874084 7.6819916 1.6874084c2.988842 0 5.5019264 -0.663208 7.5392647 -1.989624c2.0429306 -1.3264236 3.3610458 -2.8711166 3.954338 -4.634079c0.5988846 -1.7629623 0.8983307 -4.751602 0.8983307 -8.965927l0 -1.5866699l-10.603668 0l0 5.1125946c0 2.2330856 -0.12313461 3.6518555 -0.36940384 4.256302c-0.24067307 0.6044388 -0.7556076 0.906662 -1.544796 0.906662c-0.82276917 0 -1.351696 -0.3022232 -1.5867729 -0.906662c-0.2350769 -0.6044464 -0.35261536 -1.8972855 -0.35261536 -3.8785248l0 -18.939259c0 -2.0651855 0.11753845 -3.4083977 0.35261536 -4.0296288c0.2350769 -0.6212349 0.7891884 -0.93185425 1.6623344 -0.93185425c0.7723961 0 1.2705383 0.2574501 1.4944191 0.7723465c0.22948074 0.50930023 0.3442192 1.7965431 0.3442192 3.8617287l0 7.1022224l10.603668 0l0 -3.8785172c0 -3.8113594 -0.31903076 -6.6181107 -0.9570999 -8.42025c-0.63806915 -1.8077354 -1.972969 -3.3160477 -4.004711 -4.5249367c-2.0317383 -1.208889 -4.6091957 -1.8133354 -7.7323647 -1.8133354z" fill-rule="evenodd"/><path stroke="#1c4587" stroke-width="2.0" stroke-linejoin="round" stroke-linecap="butt" d="m72.32739 41.912724l0 40.774822l10.603668 0l0 -17.12593l3.1735382 0l0 17.12593l10.603668 0l0 -40.774822l-10.603668 0l0 14.582226l-3.1735382 0l0 -14.582226z" fill-rule="evenodd"/><path stroke="#1c4587" stroke-width="2.0" stroke-linejoin="round" stroke-linecap="butt" d="m112.047066 51.029762c0.53731537 6.7832108 1.0746384 12.483459 1.6119537 17.100746l-3.6269073 0c0.2686615 -3.6098785 0.9403076 -9.310127 2.0149536 -17.100746zm-8.110168 -9.117039l-5.3899918 40.774822l10.981468 0l0.6296768 -7.328888l3.803215 0l0.52892303 7.328888l10.85553 0l-6.07003 -40.774822zm21.408821 0l0 8.16l6.27153 0l0 32.614822l10.603668 0l0 -32.614822l6.296707 0l0 -8.16z" fill-rule="evenodd"/></g></g></svg>