<svg version="1.1" viewBox="0.0 0.0 192.0 124.61417322834646" fill="none" stroke="none" stroke-linecap="square" stroke-miterlimit="10" xmlns:xlink="http://www.w3.org/1999/xlink" xmlns="http://www.w3.org/2000/svg"><clipPath id="p.0"><path d="m0 0l192.0 0l0 124.614174l-192.0 0l0 -124.614174z" clip-rule="nonzero"/></clipPath><g clip-path="url(#p.0)"><path fill="#000000" fill-opacity="0.0" d="m0 0l192.0 0l0 124.614174l-192.0 0z" fill-rule="evenodd"/><g mask="url(#mask-p.1)"><use xlink:href="#p.1" transform="matrix(1.0 0.0 0.0 -1.0 0.0 217.79527559055117)"/></g><defs><mask id="mask-p.1" maskUnits="userSpaceOnUse" x="4.416010498687664" y="108.89763779527559" width="183.00787401574803" height="93.18110236220474"><linearGradient gradientUnits="userSpaceOnUse" id="gradient-p.1" x1="4.41601050108586" y1="108.89697530858773" x2="4.415983515721337" y2="116.35151632977947"><stop offset="0%" stop-color="#ffffff" stop-opacity="1.0"/><stop offset="100%" stop-color="#ffffff" stop-opacity="0.0"/></linearGradient><rect fill="url(#gradient-p.1)" x="4.416010498687664" y="108.89763779527559" width="183.00787401574803" height="93.18110236220474"/></mask></defs><g id="p.1"><defs><linearGradient id="p.2" gradientUnits="userSpaceOnUse" gradientTransform="matrix(9.550809249122876 0.0 0.0 9.550809249122876 0.0 0.0)" spreadMethod="pad" x1="0.5670742705549859" y1="1.7464145378670206" x2="0.565129254814133" y2="11.297223588939334"><stop offset="0.0" stop-color="#1e50a2"/><stop offset="0.5" stop-color="#a0d8ef"/><stop offset="1.0" stop-color="#1e50a2"/></linearGradient></defs><path fill="url(#p.2)" d="m5.4160104 31.91369l0 0c0 -8.393158 6.8039975 -15.197155 15.197155 -15.197155l150.61357 0c4.030533 0 7.895996 1.6011238 10.746017 4.4511433c2.850006 2.8500195 4.4511414 6.715475 4.4511414 10.746012l0 60.786797c0 8.393158 -6.804001 15.197151 -15.197159 15.197151l-150.61357 0c-8.393157 0 -15.197155 -6.803993 -15.197155 -15.197151z" fill-rule="evenodd"/><path stroke="#1c4587" stroke-width="2.0" stroke-linejoin="round" stroke-linecap="butt" d="m5.4160104 31.91369l0 0c0 -8.393158 6.8039975 -15.197155 15.197155 -15.197155l150.61357 0c4.030533 0 7.895996 1.6011238 10.746017 4.4511433c2.850006 2.8500195 4.4511414 6.715475 4.4511414 10.746012l0 60.786797c0 8.393158 -6.804001 15.197151 -15.197159 15.197151l-150.61357 0c-8.393157 0 -15.197155 -6.803993 -15.197155 -15.197151z" fill-rule="evenodd"/></g><g filter="url(#shadowFilter-p.3)"><use xlink:href="#p.3" transform="matrix(1.0 0.0 0.0 1.0 0.0 2.0)"/></g><defs><filter id="shadowFilter-p.3" filterUnits="userSpaceOnUse"><feGaussianBlur in="SourceAlpha" stdDeviation="2.0" result="blur"/><feComponentTransfer in="blur" color-interpolation-filters="sRGB"><feFuncR type="linear" slope="0" intercept="0.0"/><feFuncG type="linear" slope="0" intercept="0.0"/><feFuncB type="linear" slope="0" intercept="0.0"/><feFuncA type="linear" slope="0.5" intercept="0"/></feComponentTransfer></filter></defs><g id="p.3"><defs><linearGradient id="p.4" gradientUnits="userSpaceOnUse" gradientTransform="matrix(6.51837276347315 0.0 0.0 6.51837276347315 0.0 0.0)" spreadMethod="pad" x1="27.050165217839247" y1="12.816942484329152" x2="27.050237570365258" y2="6.298569721257552"><stop offset="0.0" stop-color="#1e50a2"/><stop offset="0.5" stop-color="#a0d8ef"/><stop offset="1.0" stop-color="#ffffff"/></linearGradient></defs><path fill="url(#p.4)" d="m27.896927 41.056427c-2.3003998 0 -4.337738 0.3917694 -6.112009 1.1753082c-1.7686806 0.77794266 -3.1539574 1.8469162 -4.1558323 3.206913c-0.9962826 1.3600006 -1.5951672 2.7759705 -1.7966623 4.247902c-0.20149422 1.4663391 -0.30224228 3.668644 -0.30224228 6.6069145l0 11.912598c0 3.996048 0.32742977 6.990288 0.9822874 8.982719c0.65485764 1.986824 1.9897614 3.5427094 4.004711 4.6676483c2.014948 1.124939 4.575611 1.6874084 7.6819897 1.6874084c2.98884 0 5.50193 -0.663208 7.5392647 -1.989624c2.0429344 -1.3264236 3.3610497 -2.8711166 3.954338 -4.634079c0.5988884 -1.7629623 0.8983307 -4.751602 0.8983307 -8.965927l0 -1.5866699l-10.603666 0l0 5.1125946c0 2.2330856 -0.12313461 3.6518555 -0.36940765 4.256302c-0.24067307 0.6044388 -0.7556057 0.906662 -1.5447941 0.906662c-0.8227711 0 -1.3516941 -0.3022232 -1.586771 -0.906662c-0.2350769 -0.6044464 -0.35261726 -1.8972855 -0.35261726 -3.8785248l0 -18.939259c0 -2.0651855 0.11754036 -3.4083977 0.35261726 -4.0296288c0.2350769 -0.6212349 0.7891884 -0.93185425 1.6623325 -0.93185425c0.7723961 0 1.2705383 0.2574501 1.4944191 0.7723465c0.22948265 0.50930023 0.34422112 1.7965431 0.34422112 3.8617287l0 7.1022224l10.603666 0l0 -3.8785172c0 -3.8113594 -0.31903458 -6.6181107 -0.9570999 -8.42025c-0.63806915 -1.8077354 -1.9729729 -3.3160477 -4.004711 -4.5249367c-2.0317383 -1.208889 -4.609194 -1.8133354 -7.7323647 -1.8133354z" fill-rule="evenodd"/><defs><linearGradient id="p.5" gradientUnits="userSpaceOnUse" gradientTransform="matrix(6.51837276347315 0.0 0.0 6.51837276347315 0.0 0.0)" spreadMethod="pad" x1="27.050165217839247" y1="12.816942484329152" x2="27.050237570365258" y2="6.298569721257552"><stop offset="0.0" stop-color="#1e50a2"/><stop offset="0.5" stop-color="#a0d8ef"/><stop offset="1.0" stop-color="#ffffff"/></linearGradient></defs><path fill="url(#p.5)" d="m56.408447 47.95717c0.65485764 0 1.0858345 0.26584244 1.292923 0.7975311c0.21269226 0.5260887 0.31903458 1.7377777 0.31903458 3.6350632l0 18.737778c0 2.4009933 -0.100746155 3.920494 -0.30224228 4.5585175c-0.20149231 0.638031 -0.6632538 0.9570389 -1.3852768 0.9570389c-0.7052307 0 -1.155796 -0.27703857 -1.351696 -0.8311081c-0.19029617 -0.55407715 -0.28544998 -2.0148163 -0.28544998 -4.382225l0 -19.04c0 -2.0987663 0.14552689 -3.3608246 0.43657303 -3.7861748c0.29664612 -0.43094635 0.722023 -0.6464195 1.2761345 -0.6464195zm-0.050373077 -6.9007416c-2.3003998 0 -4.3153496 0.3777771 -6.0448456 1.1333351c-1.7294998 0.7555542 -3.1035805 1.8385162 -4.1222496 3.248886c-1.0130692 1.4103737 -1.6175537 2.9690552 -1.8134537 4.676052c-0.19029999 1.7014008 -0.28544998 4.6004944 -0.28544998 8.697285l0 6.9762993c0 4.1975327 0.100746155 7.135803 0.30224228 8.814812c0.20149231 1.6790161 0.8311653 3.2321014 1.8890152 4.6592636c1.0578461 1.4271622 2.454319 2.4989243 4.189411 3.2153091c1.7406921 0.7107773 3.7024689 1.0661697 5.88533 1.0661697c2.3003998 0 4.315346 -0.3777771 6.0448456 -1.1333313c1.729496 -0.7555542 3.1007805 -1.8385162 4.1138496 -3.248886c1.0186691 -1.4103775 1.6231537 -2.9662628 1.8134537 -4.667656c0.19589996 -1.7070007 0.29384613 -4.6088943 0.29384613 -8.705681l0 -6.9762993c0 -4.1975327 -0.100746155 -7.135803 -0.30223846 -8.8148155c-0.20149994 -1.6790123 -0.8311691 -3.2320976 -1.8890152 -4.65926c-1.0578461 -1.4271622 -2.457119 -2.496132 -4.197811 -3.206913c-1.7350922 -0.7163811 -3.694069 -1.0745697 -5.87693 -1.0745697z" fill-rule="evenodd"/><defs><linearGradient id="p.6" gradientUnits="userSpaceOnUse" gradientTransform="matrix(6.51837276347315 0.0 0.0 6.51837276347315 0.0 0.0)" spreadMethod="pad" x1="27.050165217839247" y1="12.816942484329152" x2="27.050237570365258" y2="6.298569721257552"><stop offset="0.0" stop-color="#1e50a2"/><stop offset="0.5" stop-color="#a0d8ef"/><stop offset="1.0" stop-color="#ffffff"/></linearGradient></defs><path fill="url(#p.6)" d="m72.57841 41.912724l0 40.774822l9.268761 0l0 -26.897781l3.9039612 26.897781l6.5737762 0l3.7024612 -27.527412l0 27.527412l9.268768 0l0 -40.774822l-13.827583 0l-2.4179382 19.040005l-1.4608383 -10.376301c-0.45336914 -3.3244438 -0.8815384 -6.212345 -1.2845306 -8.663704z" fill-rule="evenodd"/><defs><linearGradient id="p.7" gradientUnits="userSpaceOnUse" gradientTransform="matrix(6.51837276347315 0.0 0.0 6.51837276347315 0.0 0.0)" spreadMethod="pad" x1="27.050165217839247" y1="12.816942484329152" x2="27.050237570365258" y2="6.298569721257552"><stop offset="0.0" stop-color="#1e50a2"/><stop offset="0.5" stop-color="#a0d8ef"/><stop offset="1.0" stop-color="#ffffff"/></linearGradient></defs><path fill="url(#p.7)" d="m109.55271 41.912724l0 40.774822l10.603668 0l0 -40.774822z" fill-rule="evenodd"/><defs><linearGradient id="p.8" gradientUnits="userSpaceOnUse" gradientTransform="matrix(6.51837276347315 0.0 0.0 6.51837276347315 0.0 0.0)" spreadMethod="pad" x1="27.050165217839247" y1="12.816942484329152" x2="27.050237570365258" y2="6.298569721257552"><stop offset="0.0" stop-color="#1e50a2"/><stop offset="0.5" stop-color="#a0d8ef"/><stop offset="1.0" stop-color="#ffffff"/></linearGradient></defs><path fill="url(#p.8)" d="m136.47746 41.056427c-2.3003998 0 -4.337738 0.3917694 -6.112015 1.1753082c-1.7686768 0.77794266 -3.1539536 1.8469162 -4.1558304 3.206913c-0.9962845 1.3600006 -1.5951691 2.7759705 -1.7966614 4.247902c-0.20149994 1.4663391 -0.3022461 3.668644 -0.3022461 6.6069145l0 11.912598c0 3.996048 0.32743073 6.990288 0.9822922 8.982719c0.6548538 1.986824 1.9897614 3.5427094 4.004715 4.6676483c2.0149384 1.124939 4.5756073 1.6874084 7.6819763 1.6874084c2.9888458 0 5.501938 -0.663208 7.539276 -1.989624c2.0429382 -1.3264236 3.3610382 -2.8711166 3.9543304 -4.634079c0.5988922 -1.7629623 0.8983307 -4.751602 0.8983307 -8.965927l0 -1.5866699l-10.603668 0l0 5.1125946c0 2.2330856 -0.12312317 3.6518555 -0.36940002 4.256302c-0.24067688 0.6044388 -0.75561523 0.906662 -1.5447998 0.906662c-0.82276917 0 -1.3516846 -0.3022232 -1.5867615 -0.906662c-0.2350769 -0.6044464 -0.35261536 -1.8972855 -0.35261536 -3.8785248l0 -18.939259c0 -2.0651855 0.11753845 -3.4083977 0.35261536 -4.0296288c0.2350769 -0.6212349 0.7891846 -0.93185425 1.662323 -0.93185425c0.7723999 0 1.2705383 0.2574501 1.4944153 0.7723465c0.22949219 0.50930023 0.34422302 1.7965431 0.34422302 3.8617287l0 7.1022224l10.603668 0l0 -3.8785172c0 -3.8113594 -0.31903076 -6.6181107 -0.9570923 -8.42025c-0.6380768 -1.8077354 -1.9729767 -3.3160477 -4.004715 -4.5249367c-2.0317383 -1.208889 -4.609192 -1.8133354 -7.732361 -1.8133354z" fill-rule="evenodd"/><defs><linearGradient id="p.9" gradientUnits="userSpaceOnUse" gradientTransform="matrix(6.51837276347315 0.0 0.0 6.51837276347315 0.0 0.0)" spreadMethod="pad" x1="27.050165217839247" y1="12.816942484329152" x2="27.050237570365258" y2="6.298569721257552"><stop offset="0.0" stop-color="#1e50a2"/><stop offset="0.5" stop-color="#a0d8ef"/><stop offset="1.0" stop-color="#ffffff"/></linearGradient></defs><path fill="url(#p.9)" d="m163.6037 41.056427c-2.5186768 0 -4.6679688 0.4085617 -6.44783 1.2256813c-1.7798767 0.8115196 -3.069992 1.9392586 -3.8703766 3.3832092c-0.79478455 1.4439507 -1.1921844 3.7274055 -1.1921844 6.8503723c0 2.165924 0.27986145 3.9456787 0.8395691 5.33926c0.56529236 1.3935776 1.276123 2.4849358 2.1324768 3.2740746c0.85635376 0.789135 2.6026459 2.0567894 5.2388763 3.8029594c2.6362152 1.7293854 4.290161 2.9634628 4.9618073 3.7022247c0.65486145 0.73876953 0.98228455 2.3086395 0.98228455 4.709633c0 1.0913544 -0.17350769 1.9140701 -0.5205231 2.4681473c-0.34143066 0.5540695 -0.86476135 0.8311081 -1.5699921 0.8311081c-0.7052307 0 -1.1977692 -0.21826935 -1.4776306 -0.6548157c-0.27424622 -0.4365387 -0.41137695 -1.4187622 -0.41137695 -2.946663l0 -4.961487l-9.848068 0l0 2.669632c0 3.0558014 0.31063843 5.414818 0.9319153 7.0770416c0.62127686 1.6622238 1.9337921 3.0306168 3.9375458 4.1051865c2.0093536 1.0745621 4.432892 1.6118469 7.2706146 1.6118469c2.585846 0 4.852661 -0.46452332 6.8004456 -1.3935776c1.9477844 -0.93465424 3.2602997 -2.0903702 3.9375458 -3.467163c0.68284607 -1.3767853 1.0242615 -3.5175323 1.0242615 -6.4222183c0 -3.9960556 -0.61286926 -6.8923492 -1.8386383 -8.688892c-1.2257538 -1.7965431 -4.197815 -4.0967903 -8.916138 -6.9007416c-1.6455536 -0.97382736 -2.6446228 -1.8049393 -2.9972382 -2.4933357c-0.36941528 -0.68839264 -0.5541229 -1.7125931 -0.5541229 -3.0725937c0 -1.0577774 0.162323 -1.8469124 0.48695374 -2.367405c0.3302307 -0.52049637 0.81437683 -0.78074265 1.4524384 -0.78074265c0.58769226 0 1.0074768 0.19308853 1.2593384 0.57925797c0.25187683 0.38617325 0.37780762 1.2844467 0.37780762 2.6948166l0 3.0222244l9.848068 0l0 -1.6118546c0 -3.2404938 -0.3162384 -5.535145 -0.9487152 -6.8839493c-0.62687683 -1.3544044 -1.9114075 -2.4765434 -3.8535767 -3.3664207c-1.9365997 -0.8898773 -4.281769 -1.334816 -7.0355377 -1.334816z" fill-rule="evenodd"/><path stroke="#1c4587" stroke-width="2.0" stroke-linejoin="round" stroke-linecap="butt" d="m27.896927 41.056427c-2.3003998 0 -4.337738 0.3917694 -6.112009 1.1753082c-1.7686806 0.77794266 -3.1539574 1.8469162 -4.1558323 3.206913c-0.9962826 1.3600006 -1.5951672 2.7759705 -1.7966623 4.247902c-0.20149422 1.4663391 -0.30224228 3.668644 -0.30224228 6.6069145l0 11.912598c0 3.996048 0.32742977 6.990288 0.9822874 8.982719c0.65485764 1.986824 1.9897614 3.5427094 4.004711 4.6676483c2.014948 1.124939 4.575611 1.6874084 7.6819897 1.6874084c2.98884 0 5.50193 -0.663208 7.5392647 -1.989624c2.0429344 -1.3264236 3.3610497 -2.8711166 3.954338 -4.634079c0.5988884 -1.7629623 0.8983307 -4.751602 0.8983307 -8.965927l0 -1.5866699l-10.603666 0l0 5.1125946c0 2.2330856 -0.12313461 3.6518555 -0.36940765 4.256302c-0.24067307 0.6044388 -0.7556057 0.906662 -1.5447941 0.906662c-0.8227711 0 -1.3516941 -0.3022232 -1.586771 -0.906662c-0.2350769 -0.6044464 -0.35261726 -1.8972855 -0.35261726 -3.8785248l0 -18.939259c0 -2.0651855 0.11754036 -3.4083977 0.35261726 -4.0296288c0.2350769 -0.6212349 0.7891884 -0.93185425 1.6623325 -0.93185425c0.7723961 0 1.2705383 0.2574501 1.4944191 0.7723465c0.22948265 0.50930023 0.34422112 1.7965431 0.34422112 3.8617287l0 7.1022224l10.603666 0l0 -3.8785172c0 -3.8113594 -0.31903458 -6.6181107 -0.9570999 -8.42025c-0.63806915 -1.8077354 -1.9729729 -3.3160477 -4.004711 -4.5249367c-2.0317383 -1.208889 -4.609194 -1.8133354 -7.7323647 -1.8133354z" fill-rule="evenodd"/><path stroke="#1c4587" stroke-width="2.0" stroke-linejoin="round" stroke-linecap="butt" d="m56.408447 47.95717c0.65485764 0 1.0858345 0.26584244 1.292923 0.7975311c0.21269226 0.5260887 0.31903458 1.7377777 0.31903458 3.6350632l0 18.737778c0 2.4009933 -0.100746155 3.920494 -0.30224228 4.5585175c-0.20149231 0.638031 -0.6632538 0.9570389 -1.3852768 0.9570389c-0.7052307 0 -1.155796 -0.27703857 -1.351696 -0.8311081c-0.19029617 -0.55407715 -0.28544998 -2.0148163 -0.28544998 -4.382225l0 -19.04c0 -2.0987663 0.14552689 -3.3608246 0.43657303 -3.7861748c0.29664612 -0.43094635 0.722023 -0.6464195 1.2761345 -0.6464195zm-0.050373077 -6.9007416c-2.3003998 0 -4.3153496 0.3777771 -6.0448456 1.1333351c-1.7294998 0.7555542 -3.1035805 1.8385162 -4.1222496 3.248886c-1.0130692 1.4103737 -1.6175537 2.9690552 -1.8134537 4.676052c-0.19029999 1.7014008 -0.28544998 4.6004944 -0.28544998 8.697285l0 6.9762993c0 4.1975327 0.100746155 7.135803 0.30224228 8.814812c0.20149231 1.6790161 0.8311653 3.2321014 1.8890152 4.6592636c1.0578461 1.4271622 2.454319 2.4989243 4.189411 3.2153091c1.7406921 0.7107773 3.7024689 1.0661697 5.88533 1.0661697c2.3003998 0 4.315346 -0.3777771 6.0448456 -1.1333313c1.729496 -0.7555542 3.1007805 -1.8385162 4.1138496 -3.248886c1.0186691 -1.4103775 1.6231537 -2.9662628 1.8134537 -4.667656c0.19589996 -1.7070007 0.29384613 -4.6088943 0.29384613 -8.705681l0 -6.9762993c0 -4.1975327 -0.100746155 -7.135803 -0.30223846 -8.8148155c-0.20149994 -1.6790123 -0.8311691 -3.2320976 -1.8890152 -4.65926c-1.0578461 -1.4271622 -2.457119 -2.496132 -4.197811 -3.206913c-1.7350922 -0.7163811 -3.694069 -1.0745697 -5.87693 -1.0745697z" fill-rule="evenodd"/><path stroke="#1c4587" stroke-width="2.0" stroke-linejoin="round" stroke-linecap="butt" d="m72.57841 41.912724l0 40.774822l9.268761 0l0 -26.897781l3.9039612 26.897781l6.5737762 0l3.7024612 -27.527412l0 27.527412l9.268768 0l0 -40.774822l-13.827583 0l-2.4179382 19.040005l-1.4608383 -10.376301c-0.45336914 -3.3244438 -0.8815384 -6.212345 -1.2845306 -8.663704z" fill-rule="evenodd"/><path stroke="#1c4587" stroke-width="2.0" stroke-linejoin="round" stroke-linecap="butt" d="m109.55271 41.912724l0 40.774822l10.603668 0l0 -40.774822z" fill-rule="evenodd"/><path stroke="#1c4587" stroke-width="2.0" stroke-linejoin="round" stroke-linecap="butt" d="m136.47746 41.056427c-2.3003998 0 -4.337738 0.3917694 -6.112015 1.1753082c-1.7686768 0.77794266 -3.1539536 1.8469162 -4.1558304 3.206913c-0.9962845 1.3600006 -1.5951691 2.7759705 -1.7966614 4.247902c-0.20149994 1.4663391 -0.3022461 3.668644 -0.3022461 6.6069145l0 11.912598c0 3.996048 0.32743073 6.990288 0.9822922 8.982719c0.6548538 1.986824 1.9897614 3.5427094 4.004715 4.6676483c2.0149384 1.124939 4.5756073 1.6874084 7.6819763 1.6874084c2.9888458 0 5.501938 -0.663208 7.539276 -1.989624c2.0429382 -1.3264236 3.3610382 -2.8711166 3.9543304 -4.634079c0.5988922 -1.7629623 0.8983307 -4.751602 0.8983307 -8.965927l0 -1.5866699l-10.603668 0l0 5.1125946c0 2.2330856 -0.12312317 3.6518555 -0.36940002 4.256302c-0.24067688 0.6044388 -0.75561523 0.906662 -1.5447998 0.906662c-0.82276917 0 -1.3516846 -0.3022232 -1.5867615 -0.906662c-0.2350769 -0.6044464 -0.35261536 -1.8972855 -0.35261536 -3.8785248l0 -18.939259c0 -2.0651855 0.11753845 -3.4083977 0.35261536 -4.0296288c0.2350769 -0.6212349 0.7891846 -0.93185425 1.662323 -0.93185425c0.7723999 0 1.2705383 0.2574501 1.4944153 0.7723465c0.22949219 0.50930023 0.34422302 1.7965431 0.34422302 3.8617287l0 7.1022224l10.603668 0l0 -3.8785172c0 -3.8113594 -0.31903076 -6.6181107 -0.9570923 -8.42025c-0.6380768 -1.8077354 -1.9729767 -3.3160477 -4.004715 -4.5249367c-2.0317383 -1.208889 -4.609192 -1.8133354 -7.732361 -1.8133354z" fill-rule="evenodd"/><path stroke="#1c4587" stroke-width="2.0" stroke-linejoin="round" stroke-linecap="butt" d="m163.6037 41.056427c-2.5186768 0 -4.6679688 0.4085617 -6.44783 1.2256813c-1.7798767 0.8115196 -3.069992 1.9392586 -3.8703766 3.3832092c-0.79478455 1.4439507 -1.1921844 3.7274055 -1.1921844 6.8503723c0 2.165924 0.27986145 3.9456787 0.8395691 5.33926c0.56529236 1.3935776 1.276123 2.4849358 2.1324768 3.2740746c0.85635376 0.789135 2.6026459 2.0567894 5.2388763 3.8029594c2.6362152 1.7293854 4.290161 2.9634628 4.9618073 3.7022247c0.65486145 0.73876953 0.98228455 2.3086395 0.98228455 4.709633c0 1.0913544 -0.17350769 1.9140701 -0.5205231 2.4681473c-0.34143066 0.5540695 -0.86476135 0.8311081 -1.5699921 0.8311081c-0.7052307 0 -1.1977692 -0.21826935 -1.4776306 -0.6548157c-0.27424622 -0.4365387 -0.41137695 -1.4187622 -0.41137695 -2.946663l0 -4.961487l-9.848068 0l0 2.669632c0 3.0558014 0.31063843 5.414818 0.9319153 7.0770416c0.62127686 1.6622238 1.9337921 3.0306168 3.9375458 4.1051865c2.0093536 1.0745621 4.432892 1.6118469 7.2706146 1.6118469c2.585846 0 4.852661 -0.46452332 6.8004456 -1.3935776c1.9477844 -0.93465424 3.2602997 -2.0903702 3.9375458 -3.467163c0.68284607 -1.3767853 1.0242615 -3.5175323 1.0242615 -6.4222183c0 -3.9960556 -0.61286926 -6.8923492 -1.8386383 -8.688892c-1.2257538 -1.7965431 -4.197815 -4.0967903 -8.916138 -6.9007416c-1.6455536 -0.97382736 -2.6446228 -1.8049393 -2.9972382 -2.4933357c-0.36941528 -0.68839264 -0.5541229 -1.7125931 -0.5541229 -3.0725937c0 -1.0577774 0.162323 -1.8469124 0.48695374 -2.367405c0.3302307 -0.52049637 0.81437683 -0.78074265 1.4524384 -0.78074265c0.58769226 0 1.0074768 0.19308853 1.2593384 0.57925797c0.25187683 0.38617325 0.37780762 1.2844467 0.37780762 2.6948166l0 3.0222244l9.848068 0l0 -1.6118546c0 -3.2404938 -0.3162384 -5.535145 -0.9487152 -6.8839493c-0.62687683 -1.3544044 -1.9114075 -2.4765434 -3.8535767 -3.3664207c-1.9365997 -0.8898773 -4.281769 -1.334816 -7.0355377 -1.334816z" fill-rule="evenodd"/></g></g></svg>