<svg version="1.1" viewBox="0.0 0.0 192.0 192.0" fill="none" stroke="none" stroke-linecap="square" stroke-miterlimit="10" xmlns:xlink="http://www.w3.org/1999/xlink" xmlns="http://www.w3.org/2000/svg"><clipPath id="p.0"><path d="m0 0l192.0 0l0 192.0l-192.0 0l0 -192.0z" clip-rule="nonzero"/></clipPath><g clip-path="url(#p.0)"><path fill="#000000" fill-opacity="0.0" d="m0 0l192.0 0l0 192.0l-192.0 0z" fill-rule="evenodd"/><g filter="url(#shadowFilter-p.1)"><use xlink:href="#p.1" transform="matrix(1.0 0.0 0.0 1.0 0.0 2.0)"/></g><defs><filter id="shadowFilter-p.1" filterUnits="userSpaceOnUse"><feGaussianBlur in="SourceAlpha" stdDeviation="2.0" result="blur"/><feComponentTransfer in="blur" color-interpolation-filters="sRGB"><feFuncR type="linear" slope="0" intercept="0.0"/><feFuncG type="linear" slope="0" intercept="0.0"/><feFuncB type="linear" slope="0" intercept="0.0"/><feFuncA type="linear" slope="0.5" intercept="0"/></feComponentTransfer></filter></defs><g id="p.1"><defs><linearGradient id="p.2" gradientUnits="userSpaceOnUse" gradientTransform="matrix(12.296285388665812 0.0 0.0 12.296285388665812 0.0 0.0)" spreadMethod="pad" x1="14.156294797753734" y1="13.954383813515328" x2="14.156429873115467" y2="1.658098425591419"><stop offset="0.0" stop-color="#1e50a2"/><stop offset="0.5" stop-color="#a0d8ef"/><stop offset="1.0" stop-color="#ffffff"/></linearGradient></defs><path fill="url(#p.2)" d="m17.79921 21.630066l0 59.122734l15.3750725 0l0 -59.122734z" fill-rule="evenodd"/><defs><linearGradient id="p.3" gradientUnits="userSpaceOnUse" gradientTransform="matrix(12.296285388665812 0.0 0.0 12.296285388665812 0.0 0.0)" spreadMethod="pad" x1="14.156294797753734" y1="13.954383813515328" x2="14.156429873115467" y2="1.658098425591419"><stop offset="0.0" stop-color="#1e50a2"/><stop offset="0.5" stop-color="#a0d8ef"/><stop offset="1.0" stop-color="#ffffff"/></linearGradient></defs><path fill="url(#p.3)" d="m54.7213 31.745567c1.6799355 0 2.8242416 0.17853165 3.4329147 0.53559875c0.6086693 0.34894943 0.99822235 0.9007759 1.1686516 1.6554832c0.17042542 0.75470734 0.25564194 2.471058 0.25564194 5.149048l0 22.969856c0 3.9439507 -0.25564194 6.362255 -0.7669296 7.254917c-0.5112839 0.884552 -1.8747101 1.326828 -4.0902786 1.326828l0 -38.89173zm-15.3750725 -10.115501l0 59.122734l19.392311 0c3.676384 0 6.4275856 -0.19882202 8.253605 -0.59646606c1.8260117 -0.4057541 3.359871 -1.1117706 4.6015625 -2.118042c1.2416916 -1.0143967 2.1100693 -2.4142532 2.6051178 -4.1995773c0.5031738 -1.7934494 0.7547531 -5.343811 0.7547531 -10.6511l0 -20.705738c0 -5.5994377 -0.17042542 -9.35268 -0.5112839 -11.259735c-0.34085846 -1.9151688 -1.1929932 -3.6518059 -2.556427 -5.2099094c-1.3634262 -1.5581036 -3.355812 -2.67799 -5.977165 -3.359661c-2.6132317 -0.68166924 -7.6327515 -1.0225048 -15.058559 -1.0225048z" fill-rule="evenodd"/><defs><linearGradient id="p.4" gradientUnits="userSpaceOnUse" gradientTransform="matrix(12.296285388665812 0.0 0.0 12.296285388665812 0.0 0.0)" spreadMethod="pad" x1="14.156294797753734" y1="13.954383813515328" x2="14.156429873115467" y2="1.658098425591419"><stop offset="0.0" stop-color="#1e50a2"/><stop offset="0.5" stop-color="#a0d8ef"/><stop offset="1.0" stop-color="#ffffff"/></linearGradient></defs><path fill="url(#p.4)" d="m80.68728 21.630066l0 59.122734l15.375069 0l0 -59.122734z" fill-rule="evenodd"/><defs><linearGradient id="p.5" gradientUnits="userSpaceOnUse" gradientTransform="matrix(12.296285388665812 0.0 0.0 12.296285388665812 0.0 0.0)" spreadMethod="pad" x1="14.156294797753734" y1="13.954383813515328" x2="14.156429873115467" y2="1.658098425591419"><stop offset="0.0" stop-color="#1e50a2"/><stop offset="0.5" stop-color="#a0d8ef"/><stop offset="1.0" stop-color="#ffffff"/></linearGradient></defs><path fill="url(#p.5)" d="m119.6545 30.3944c0.94953156 0 1.5744324 0.38546753 1.8747101 1.1564045c0.3083954 0.7628212 0.46259308 2.5197449 0.46259308 5.270771l0 27.169434c0 3.481388 -0.14608002 5.684643 -0.43824768 6.609768c-0.29216003 0.9251251 -0.96170044 1.3876877 -2.0086136 1.3876877c-1.0225754 0 -1.6758804 -0.40169525 -1.9599304 -1.2050934c-0.2759323 -0.80339813 -0.41389465 -2.9214478 -0.41389465 -6.354141l0 -27.607655c0 -3.043171 0.21100616 -4.873131 0.6330185 -5.4898796c0.43013 -0.6248646 1.0469131 -0.9372959 1.8503647 -0.9372959zm-0.07304382 -10.005949c-3.3355255 0 -6.2571564 0.54777145 -8.764885 1.6433125c-2.5077286 1.0955429 -4.500122 2.6658192 -5.977165 4.7108307c-1.4689331 2.0450115 -2.3454208 4.305073 -2.6294632 6.780184c-0.2759323 2.466999 -0.41390228 6.6706314 -0.41390228 12.610905l0 10.115501c0 6.086342 0.14608002 10.346779 0.43824768 12.781319c0.29216003 2.4345398 1.2051697 4.6864853 2.739029 6.7558365c1.5338516 2.0693588 3.5587006 3.6234055 6.074547 4.66214c2.523964 1.0306244 5.3684998 1.5459366 8.533592 1.5459366c3.3355255 0 6.2571564 -0.54777527 8.764885 -1.6433182c2.5077362 -1.0955429 4.496063 -2.6658173 5.9649963 -4.7108307c1.4770508 -2.0450058 2.353531 -4.30101 2.6294708 -6.768013c0.28404236 -2.475113 0.42607117 -6.6828003 0.42607117 -12.62307l0 -10.115501c0 -6.0863457 -0.14608765 -10.346783 -0.43824768 -12.7813225c-0.29216003 -2.434536 -1.2051697 -4.6864815 -2.739029 -6.7558384c-1.5338593 -2.069357 -3.5627594 -3.6193466 -6.086731 -4.6499653c-2.5158463 -1.0387363 -5.3563156 -1.5581055 -8.521416 -1.5581055z" fill-rule="evenodd"/><defs><linearGradient id="p.6" gradientUnits="userSpaceOnUse" gradientTransform="matrix(12.296285388665812 0.0 0.0 12.296285388665812 0.0 0.0)" spreadMethod="pad" x1="14.156294797753734" y1="13.954383813515328" x2="14.156429873115467" y2="1.658098425591419"><stop offset="0.0" stop-color="#1e50a2"/><stop offset="0.5" stop-color="#a0d8ef"/><stop offset="1.0" stop-color="#ffffff"/></linearGradient></defs><path fill="url(#p.6)" d="m140.47112 21.630066l0 11.831848l9.093567 0l0 47.290886l15.375076 0l0 -47.290886l9.130081 0l0 -11.831848z" fill-rule="evenodd"/><defs><linearGradient id="p.7" gradientUnits="userSpaceOnUse" gradientTransform="matrix(12.296285388665812 0.0 0.0 12.296285388665812 0.0 0.0)" spreadMethod="pad" x1="14.156294797753734" y1="13.954383813515328" x2="14.156429873115467" y2="1.658098425591419"><stop offset="0.0" stop-color="#1e50a2"/><stop offset="0.5" stop-color="#a0d8ef"/><stop offset="1.0" stop-color="#ffffff"/></linearGradient></defs><path fill="url(#p.7)" d="m25.377186 111.22104l0 11.831848l10.444824 0l-11.832598 38.709137l0 8.581741l28.3398 0l0 -11.831848l-11.467392 0l11.467392 -35.45903l0 -11.831848z" fill-rule="evenodd"/><defs><linearGradient id="p.8" gradientUnits="userSpaceOnUse" gradientTransform="matrix(12.296285388665812 0.0 0.0 12.296285388665812 0.0 0.0)" spreadMethod="pad" x1="14.156294797753734" y1="13.954383813515328" x2="14.156429873115467" y2="1.658098425591419"><stop offset="0.0" stop-color="#1e50a2"/><stop offset="0.5" stop-color="#a0d8ef"/><stop offset="1.0" stop-color="#ffffff"/></linearGradient></defs><path fill="url(#p.8)" d="m73.73015 119.98537c0.9495239 0 1.5744324 0.38547516 1.8747101 1.1564102c0.3083954 0.762825 0.46259308 2.5197449 0.46259308 5.270767l0 27.169441c0 3.4813843 -0.14608002 5.6846313 -0.43824768 6.6097565c-0.29216003 0.9251251 -0.96170044 1.3876953 -2.0086212 1.3876953c-1.0225677 0 -1.6758728 -0.40170288 -1.9599228 -1.2050934c-0.2759323 -0.80340576 -0.41390228 -2.9214478 -0.41390228 -6.354141l0 -27.607658c0 -3.043167 0.2110138 -4.873123 0.6330261 -5.489876c0.43013 -0.6248627 1.0469131 -0.93730164 1.8503647 -0.93730164zm-0.07304382 -10.005943c-3.3355255 0 -6.2571564 0.54776764 -8.764885 1.6433105c-2.5077324 1.0955429 -4.500122 2.6658173 -5.977169 4.7108307c-1.4689293 2.0450058 -2.345417 4.3050766 -2.6294632 6.780182c-0.2759323 2.4670029 -0.41389847 6.6706314 -0.41389847 12.6109085l0 10.115494c0 6.0863495 0.14608002 10.3467865 0.43824387 12.781326c0.29216385 2.4345398 1.2051735 4.6864777 2.739029 6.755844c1.5338554 2.0693512 3.5587044 3.6233978 6.0745506 4.6621246c2.523964 1.0306244 5.368492 1.5459442 8.533592 1.5459442c3.3355255 0 6.2571564 -0.54777527 8.764885 -1.6433258c2.5077362 -1.0955353 4.496063 -2.6658173 5.9649963 -4.7108154c1.4770432 -2.0450134 2.353531 -4.3010254 2.6294632 -6.7680206c0.28405 -2.475113 0.42607117 -6.6828003 0.42607117 -12.623077l0 -10.115494c0 -6.0863495 -0.14608002 -10.3467865 -0.43824005 -12.781326c-0.29216766 -2.4345322 -1.2051773 -4.6864777 -2.739029 -6.7558365c-1.5338593 -2.0693588 -3.562767 -3.619339 -6.086731 -4.6499634c-2.5158463 -1.0387344 -5.3563156 -1.5581055 -8.521416 -1.5581055z" fill-rule="evenodd"/><defs><linearGradient id="p.9" gradientUnits="userSpaceOnUse" gradientTransform="matrix(12.296285388665812 0.0 0.0 12.296285388665812 0.0 0.0)" spreadMethod="pad" x1="14.156294797753734" y1="13.954383813515328" x2="14.156429873115467" y2="1.658098425591419"><stop offset="0.0" stop-color="#1e50a2"/><stop offset="0.5" stop-color="#a0d8ef"/><stop offset="1.0" stop-color="#ffffff"/></linearGradient></defs><path fill="url(#p.9)" d="m97.176216 111.22104l0 59.122726l12.855171 0l0 -26.877289l7.9979553 26.877289l13.476013 0l0 -59.122726l-12.855164 0l0 26.621658l-8.618805 -26.621658z" fill-rule="evenodd"/><defs><linearGradient id="p.10" gradientUnits="userSpaceOnUse" gradientTransform="matrix(12.296285388665812 0.0 0.0 12.296285388665812 0.0 0.0)" spreadMethod="pad" x1="14.156294797753734" y1="13.954383813515328" x2="14.156429873115467" y2="1.658098425591419"><stop offset="0.0" stop-color="#1e50a2"/><stop offset="0.5" stop-color="#a0d8ef"/><stop offset="1.0" stop-color="#ffffff"/></linearGradient></defs><path fill="url(#p.10)" d="m137.6773 111.22104l0 59.122726l26.659866 0l0 -11.831848l-11.284805 0l0 -13.000427l9.604858 0l0 -11.247559l-9.604858 0l0 -11.211044l10.262222 0l0 -11.831848z" fill-rule="evenodd"/><path stroke="#1c4587" stroke-width="2.0" stroke-linejoin="round" stroke-linecap="butt" d="m17.79921 21.630066l0 59.122734l15.3750725 0l0 -59.122734z" fill-rule="evenodd"/><path stroke="#1c4587" stroke-width="2.0" stroke-linejoin="round" stroke-linecap="butt" d="m54.7213 31.745567c1.6799355 0 2.8242416 0.17853165 3.4329147 0.53559875c0.6086693 0.34894943 0.99822235 0.9007759 1.1686516 1.6554832c0.17042542 0.75470734 0.25564194 2.471058 0.25564194 5.149048l0 22.969856c0 3.9439507 -0.25564194 6.362255 -0.7669296 7.254917c-0.5112839 0.884552 -1.8747101 1.326828 -4.0902786 1.326828l0 -38.89173zm-15.3750725 -10.115501l0 59.122734l19.392311 0c3.676384 0 6.4275856 -0.19882202 8.253605 -0.59646606c1.8260117 -0.4057541 3.359871 -1.1117706 4.6015625 -2.118042c1.2416916 -1.0143967 2.1100693 -2.4142532 2.6051178 -4.1995773c0.5031738 -1.7934494 0.7547531 -5.343811 0.7547531 -10.6511l0 -20.705738c0 -5.5994377 -0.17042542 -9.35268 -0.5112839 -11.259735c-0.34085846 -1.9151688 -1.1929932 -3.6518059 -2.556427 -5.2099094c-1.3634262 -1.5581036 -3.355812 -2.67799 -5.977165 -3.359661c-2.6132317 -0.68166924 -7.6327515 -1.0225048 -15.058559 -1.0225048z" fill-rule="evenodd"/><path stroke="#1c4587" stroke-width="2.0" stroke-linejoin="round" stroke-linecap="butt" d="m80.68728 21.630066l0 59.122734l15.375069 0l0 -59.122734z" fill-rule="evenodd"/><path stroke="#1c4587" stroke-width="2.0" stroke-linejoin="round" stroke-linecap="butt" d="m119.6545 30.3944c0.94953156 0 1.5744324 0.38546753 1.8747101 1.1564045c0.3083954 0.7628212 0.46259308 2.5197449 0.46259308 5.270771l0 27.169434c0 3.481388 -0.14608002 5.684643 -0.43824768 6.609768c-0.29216003 0.9251251 -0.96170044 1.3876877 -2.0086136 1.3876877c-1.0225754 0 -1.6758804 -0.40169525 -1.9599304 -1.2050934c-0.2759323 -0.80339813 -0.41389465 -2.9214478 -0.41389465 -6.354141l0 -27.607655c0 -3.043171 0.21100616 -4.873131 0.6330185 -5.4898796c0.43013 -0.6248646 1.0469131 -0.9372959 1.8503647 -0.9372959zm-0.07304382 -10.005949c-3.3355255 0 -6.2571564 0.54777145 -8.764885 1.6433125c-2.5077286 1.0955429 -4.500122 2.6658192 -5.977165 4.7108307c-1.4689331 2.0450115 -2.3454208 4.305073 -2.6294632 6.780184c-0.2759323 2.466999 -0.41390228 6.6706314 -0.41390228 12.610905l0 10.115501c0 6.086342 0.14608002 10.346779 0.43824768 12.781319c0.29216003 2.4345398 1.2051697 4.6864853 2.739029 6.7558365c1.5338516 2.0693588 3.5587006 3.6234055 6.074547 4.66214c2.523964 1.0306244 5.3684998 1.5459366 8.533592 1.5459366c3.3355255 0 6.2571564 -0.54777527 8.764885 -1.6433182c2.5077362 -1.0955429 4.496063 -2.6658173 5.9649963 -4.7108307c1.4770508 -2.0450058 2.353531 -4.30101 2.6294708 -6.768013c0.28404236 -2.475113 0.42607117 -6.6828003 0.42607117 -12.62307l0 -10.115501c0 -6.0863457 -0.14608765 -10.346783 -0.43824768 -12.7813225c-0.29216003 -2.434536 -1.2051697 -4.6864815 -2.739029 -6.7558384c-1.5338593 -2.069357 -3.5627594 -3.6193466 -6.086731 -4.6499653c-2.5158463 -1.0387363 -5.3563156 -1.5581055 -8.521416 -1.5581055z" fill-rule="evenodd"/><path stroke="#1c4587" stroke-width="2.0" stroke-linejoin="round" stroke-linecap="butt" d="m140.47112 21.630066l0 11.831848l9.093567 0l0 47.290886l15.375076 0l0 -47.290886l9.130081 0l0 -11.831848z" fill-rule="evenodd"/><path stroke="#1c4587" stroke-width="2.0" stroke-linejoin="round" stroke-linecap="butt" d="m25.377186 111.22104l0 11.831848l10.444824 0l-11.832598 38.709137l0 8.581741l28.3398 0l0 -11.831848l-11.467392 0l11.467392 -35.45903l0 -11.831848z" fill-rule="evenodd"/><path stroke="#1c4587" stroke-width="2.0" stroke-linejoin="round" stroke-linecap="butt" d="m73.73015 119.98537c0.9495239 0 1.5744324 0.38547516 1.8747101 1.1564102c0.3083954 0.762825 0.46259308 2.5197449 0.46259308 5.270767l0 27.169441c0 3.4813843 -0.14608002 5.6846313 -0.43824768 6.6097565c-0.29216003 0.9251251 -0.96170044 1.3876953 -2.0086212 1.3876953c-1.0225677 0 -1.6758728 -0.40170288 -1.9599228 -1.2050934c-0.2759323 -0.80340576 -0.41390228 -2.9214478 -0.41390228 -6.354141l0 -27.607658c0 -3.043167 0.2110138 -4.873123 0.6330261 -5.489876c0.43013 -0.6248627 1.0469131 -0.93730164 1.8503647 -0.93730164zm-0.07304382 -10.005943c-3.3355255 0 -6.2571564 0.54776764 -8.764885 1.6433105c-2.5077324 1.0955429 -4.500122 2.6658173 -5.977169 4.7108307c-1.4689293 2.0450058 -2.345417 4.3050766 -2.6294632 6.780182c-0.2759323 2.4670029 -0.41389847 6.6706314 -0.41389847 12.6109085l0 10.115494c0 6.0863495 0.14608002 10.3467865 0.43824387 12.781326c0.29216385 2.4345398 1.2051735 4.6864777 2.739029 6.755844c1.5338554 2.0693512 3.5587044 3.6233978 6.0745506 4.6621246c2.523964 1.0306244 5.368492 1.5459442 8.533592 1.5459442c3.3355255 0 6.2571564 -0.54777527 8.764885 -1.6433258c2.5077362 -1.0955353 4.496063 -2.6658173 5.9649963 -4.7108154c1.4770432 -2.0450134 2.353531 -4.3010254 2.6294632 -6.7680206c0.28405 -2.475113 0.42607117 -6.6828003 0.42607117 -12.623077l0 -10.115494c0 -6.0863495 -0.14608002 -10.3467865 -0.43824005 -12.781326c-0.29216766 -2.4345322 -1.2051773 -4.6864777 -2.739029 -6.7558365c-1.5338593 -2.0693588 -3.562767 -3.619339 -6.086731 -4.6499634c-2.5158463 -1.0387344 -5.3563156 -1.5581055 -8.521416 -1.5581055z" fill-rule="evenodd"/><path stroke="#1c4587" stroke-width="2.0" stroke-linejoin="round" stroke-linecap="butt" d="m97.176216 111.22104l0 59.122726l12.855171 0l0 -26.877289l7.9979553 26.877289l13.476013 0l0 -59.122726l-12.855164 0l0 26.621658l-8.618805 -26.621658z" fill-rule="evenodd"/><path stroke="#1c4587" stroke-width="2.0" stroke-linejoin="round" stroke-linecap="butt" d="m137.6773 111.22104l0 59.122726l26.659866 0l0 -11.831848l-11.284805 0l0 -13.000427l9.604858 0l0 -11.247559l-9.604858 0l0 -11.211044l10.262222 0l0 -11.831848z" fill-rule="evenodd"/></g></g></svg>