<svg version="1.1" viewBox="0.0 0.0 192.0 124.61417322834646" fill="none" stroke="none" stroke-linecap="square" stroke-miterlimit="10" xmlns:xlink="http://www.w3.org/1999/xlink" xmlns="http://www.w3.org/2000/svg"><clipPath id="p.0"><path d="m0 0l192.0 0l0 124.614174l-192.0 0l0 -124.614174z" clip-rule="nonzero"/></clipPath><g clip-path="url(#p.0)"><path fill="#000000" fill-opacity="0.0" d="m0 0l192.0 0l0 124.614174l-192.0 0z" fill-rule="evenodd"/><g filter="url(#shadowFilter-p.1)"><use xlink:href="#p.1" transform="matrix(1.0 0.0 0.0 1.0 0.0 2.0)"/></g><defs><filter id="shadowFilter-p.1" filterUnits="userSpaceOnUse"><feGaussianBlur in="SourceAlpha" stdDeviation="2.0" result="blur"/><feComponentTransfer in="blur" color-interpolation-filters="sRGB"><feFuncR type="linear" slope="0" intercept="0.0"/><feFuncG type="linear" slope="0" intercept="0.0"/><feFuncB type="linear" slope="0" intercept="0.0"/><feFuncA type="linear" slope="0.5" intercept="0"/></feComponentTransfer></filter></defs><g id="p.1"><defs><linearGradient id="p.2" gradientUnits="userSpaceOnUse" gradientTransform="matrix(9.548913997454541 0.0 0.0 9.548913997454541 0.0 0.0)" spreadMethod="pad" x1="0.5671860171880712" y1="1.7505529183264008" x2="0.5671513905126443" y2="11.299466915718158"><stop offset="0.0" stop-color="#000000"/><stop offset="0.48" stop-color="#a21e1e"/><stop offset="1.0" stop-color="#e14f23"/></linearGradient></defs><path fill="url(#p.2)" d="m5.4160104 31.91369l0 0c0 -8.393158 6.8039975 -15.197155 15.197155 -15.197155l150.61357 0c4.030533 0 7.895996 1.6011238 10.746017 4.4511433c2.850006 2.8500195 4.4511414 6.715475 4.4511414 10.746012l0 60.786797c0 8.393158 -6.804001 15.197151 -15.197159 15.197151l-150.61357 0c-8.393157 0 -15.197155 -6.803993 -15.197155 -15.197151z" fill-rule="evenodd"/><path stroke="#5b0f00" stroke-width="2.0" stroke-linejoin="round" stroke-linecap="butt" d="m5.4160104 31.91369l0 0c0 -8.393158 6.8039975 -15.197155 15.197155 -15.197155l150.61357 0c4.030533 0 7.895996 1.6011238 10.746017 4.4511433c2.850006 2.8500195 4.4511414 6.715475 4.4511414 10.746012l0 60.786797c0 8.393158 -6.804001 15.197151 -15.197159 15.197151l-150.61357 0c-8.393157 0 -15.197155 -6.803993 -15.197155 -15.197151z" fill-rule="evenodd"/></g><g filter="url(#shadowFilter-p.3)"><use xlink:href="#p.3" transform="matrix(1.0 0.0 0.0 1.0 0.0 2.0)"/></g><defs><filter id="shadowFilter-p.3" filterUnits="userSpaceOnUse"><feGaussianBlur in="SourceAlpha" stdDeviation="2.0" result="blur"/><feComponentTransfer in="blur" color-interpolation-filters="sRGB"><feFuncR type="linear" slope="0" intercept="0.0"/><feFuncG type="linear" slope="0" intercept="0.0"/><feFuncB type="linear" slope="0" intercept="0.0"/><feFuncA type="linear" slope="0.5" intercept="0"/></feComponentTransfer></filter></defs><g id="p.3"><defs><linearGradient id="p.4" gradientUnits="userSpaceOnUse" gradientTransform="matrix(6.533713501124634 0.0 0.0 6.533713501124634 0.0 0.0)" spreadMethod="pad" x1="3.695349419295549" y1="6.267834213208847" x2="3.6953258814758922" y2="12.801547714291083"><stop offset="0.0" stop-color="#000000"/><stop offset="0.48" stop-color="#a21e1e"/><stop offset="1.0" stop-color="#e14f23"/></linearGradient></defs><path fill="url(#p.4)" d="m49.683826 42.463863c-1.0578499 0 -2.641819 0.05876541 -4.7519226 0.17629623c-2.1044998 0.11753082 -3.6856728 0.17629623 -4.7435226 0.17629623c-0.5541115 0 -1.393673 -0.01958847 -2.5186844 -0.05876541c-1.1250153 -0.0447731 -1.9729729 -0.067157745 -2.5438728 -0.067157745c-3.0056305 0 -4.5084476 1.1417274 -4.5084476 3.4251823c0 1.0409889 0.36940765 1.8888893 1.108221 2.543705c0.68844223 0.6044464 1.5280037 0.9066658 2.5186844 0.9066658c0.4869461 0 1.4776306 0.03358078 2.9720497 0.10074234c0.745533 0.030220032 1.4003906 0.045333862 1.9645767 0.045333862c0.37612534 0 0.7119484 -0.006717682 1.007473 -0.020149231l0.5792961 -0.025184631c0.050376892 0.85629654 0.07556152 1.4019737 0.07556152 1.6370354c0 5.708645 -0.1259346 10.477039 -0.3778038 14.305191c-0.30224228 4.6844406 -0.4869423 7.295311 -0.55410767 7.832588c-0.2686615 2.2330933 -0.7052345 3.3496323 -1.3097191 3.3496323c-1.4944191 0 -3.0951805 -0.5652695 -4.802292 -1.6958008c-1.7015114 -1.1361313 -2.552269 -2.1995087 -2.552269 -3.1901245c0 -2.585678 -1.1837826 -3.8785172 -3.5513458 -3.8785172c-2.3675652 0 -3.5513477 1.3096313 -3.5513477 3.9288864c0 3.2404938 1.7294979 6.0612335 5.1884937 8.462227c3.0560036 2.1491318 6.1455917 3.2237015 9.268761 3.2237015c3.274292 0 5.532715 -2.0232086 6.7752647 -6.0696335c1.6959152 -5.490364 2.5438728 -14.246418 2.5438728 -26.26815c0 -1.238308 0.005897522 -1.8574638 0.017692566 -1.8574638c0.0022773743 0 0.0047721863 0.023105621 0.00749588 0.069316864l1.9645729 0c0.40298843 0 0.9319153 0.030784607 1.5867729 0.09234619c0.65485764 0.05596924 1.1334076 0.08395004 1.4356499 0.08395004c1.0410576 0 1.9058037 -0.3777771 2.594246 -1.1333313c0.60448456 -0.68839645 0.90672684 -1.4691391 0.90672684 -2.3422241c0 -2.501728 -2.2500267 -3.752594 -6.7500763 -3.752594z" fill-rule="evenodd"/><defs><linearGradient id="p.5" gradientUnits="userSpaceOnUse" gradientTransform="matrix(6.533713501124634 0.0 0.0 6.533713501124634 0.0 0.0)" spreadMethod="pad" x1="3.695349419295549" y1="6.267834213208847" x2="3.6953258814758922" y2="12.801547714291083"><stop offset="0.0" stop-color="#000000"/><stop offset="0.48" stop-color="#a21e1e"/><stop offset="1.0" stop-color="#e14f23"/></linearGradient></defs><path fill="url(#p.5)" d="m74.03951 60.34535c0.18470764 0 0.40579224 0.03917694 0.6632538 0.11753082c0.26306152 0.07275772 0.5625076 0.19308472 0.8983307 0.36098862c-0.15111542 0.85629654 -0.2658615 1.6342392 -0.3442154 2.333828c-0.072769165 0.6939926 -0.10914612 1.3096275 -0.10914612 1.8469124c0 1.9812317 0.2518692 4.969879 0.7556076 8.965927c-0.82276917 0.671608 -1.7015152 1.1809006 -2.6362228 1.5279007c-0.9291153 0.34140015 -1.9142075 0.5121002 -2.9552612 0.5121002c-1.6119614 0 -2.8209305 -0.5652695 -3.6269073 -1.6958008c-0.80597687 -1.1361389 -1.2089691 -2.8291397 -1.2089691 -5.0790176c0 -2.3506165 0.85635376 -4.418602 2.5690613 -6.203949c1.7127075 -1.790947 3.7108612 -2.6864204 5.9944687 -2.6864204zm-0.32743073 -6.0192604c-4.1642227 0 -7.740753 1.4411545 -10.729595 4.323456c-2.988842 2.876709 -4.483261 6.338272 -4.483261 10.384697c0 4.3150635 1.010273 7.5555573 3.030819 9.721481c2.0261421 2.165924 5.0625534 3.248886 9.109245 3.248886c0.82276917 0 1.821846 -0.19028473 2.9972382 -0.5708618c1.1753845 -0.3749771 2.5354767 -0.93185425 4.080269 -1.6706161c1.6791229 1.6790085 2.9048843 2.5185165 3.6772766 2.5185165c0.88993835 0 1.6735306 -0.29382324 2.3507767 -0.88147736c0.68284607 -0.5876541 1.0242615 -1.3264236 1.0242615 -2.216301c0 -0.20147705 -0.3274231 -1.0242004 -0.98228455 -2.4681473c-0.722023 -1.5950623 -1.108223 -2.4681473 -1.1585922 -2.6192627c-0.45336914 -1.4103699 -0.6800461 -3.7190094 -0.6800461 -6.925926c0 -1.3600006 0.044776917 -2.5465012 0.13433075 -3.5595055c0.09514618 -1.0186005 0.22667694 -1.8637047 0.3945923 -2.5353088c0.38619995 -0.453331 0.5792999 -0.9822235 0.5792999 -1.5866661c0 -1.4439507 -1.2677383 -2.711605 -3.803215 -3.8029633c-2.0989075 -0.9066658 -3.9459457 -1.3600006 -5.541115 -1.3600006z" fill-rule="evenodd"/><defs><linearGradient id="p.6" gradientUnits="userSpaceOnUse" gradientTransform="matrix(6.533713501124634 0.0 0.0 6.533713501124634 0.0 0.0)" spreadMethod="pad" x1="3.695349419295549" y1="6.267834213208847" x2="3.6953258814758922" y2="12.801547714291083"><stop offset="0.0" stop-color="#000000"/><stop offset="0.48" stop-color="#a21e1e"/><stop offset="1.0" stop-color="#e14f23"/></linearGradient></defs><path fill="url(#p.6)" d="m99.57899 53.84757c-3.5597458 0 -6.6829147 2.0316048 -9.369514 6.094818c-2.3675613 3.5595055 -3.5513458 7.0098763 -3.5513458 10.351109c0 3.6266708 1.3181152 6.548149 3.954338 8.76445c2.501892 2.0987625 5.5998764 3.1481476 9.293953 3.1481476c1.6119537 0 3.694069 -0.5792618 6.246338 -1.7377777c2.8545074 -1.3096313 4.281761 -2.6192627 4.281761 -3.928894c0 -0.8395004 -0.32463074 -1.5866623 -0.9738922 -2.241478c-0.6436615 -0.6548157 -1.4188538 -0.9822235 -2.3255844 -0.9822235c-0.4365692 0 -1.4692307 0.42814636 -3.0979843 1.2844467c-1.628746 0.8562927 -3.0056305 1.2844467 -4.130638 1.2844467c-1.981369 0 -3.576538 -0.47852325 -4.785507 -1.4355621c-1.2761307 -1.0074081 -1.9141998 -2.3925934 -1.9141998 -4.1555557c0 -1.779747 0.722023 -3.8953094 2.166069 -6.3466644c1.5112152 -2.5353088 2.9132767 -3.8029633 4.2062073 -3.8029633c2.0317383 0 3.5541458 0.3917694 4.567215 1.1753082c1.0186691 0.77794266 1.8890152 1.1669121 2.6110382 1.1669121c0.9570999 0 1.7378922 -0.34419632 2.3423767 -1.0325928c0.57089996 -0.6380234 0.85635376 -1.368393 0.85635376 -2.1911087c0 -1.5111122 -1.4188614 -2.8459282 -4.2565765 -4.004448c-2.3339844 -0.9402466 -4.3741226 -1.4103699 -6.120407 -1.4103699z" fill-rule="evenodd"/><defs><linearGradient id="p.7" gradientUnits="userSpaceOnUse" gradientTransform="matrix(6.533713501124634 0.0 0.0 6.533713501124634 0.0 0.0)" spreadMethod="pad" x1="3.695349419295549" y1="6.267834213208847" x2="3.6953258814758922" y2="12.801547714291083"><stop offset="0.0" stop-color="#000000"/><stop offset="0.48" stop-color="#a21e1e"/><stop offset="1.0" stop-color="#e14f23"/></linearGradient></defs><path fill="url(#p.7)" d="m126.65098 61.151054c0.018051147 0 0.036132812 7.247925E-5 0.054252625 2.2125244E-4c3.0559998 0.016788483 4.474869 2.7283936 4.2565765 8.134811c-0.08395386 1.9812393 -0.7388153 3.551117 -1.9645691 4.709633c-1.074646 0.99061584 -2.3423843 1.4859238 -3.8032227 1.4859238c-1.2089691 0 -2.2668152 -0.42814636 -3.1735458 -1.2844391c-1.1417999 -1.0745697 -1.7126999 -2.6192627 -1.7126999 -4.634079c0 -2.132347 0.5037308 -3.996048 1.5112076 -5.59111c1.1817169 -1.8806419 2.792389 -2.820961 4.8320007 -2.820961zm0.38167572 -6.64867c-4.5504227 0 -8.1017685 1.7125931 -10.654037 5.137779c-2.1492767 2.9046898 -3.1651459 6.212345 -3.0476074 9.922962c0.11753845 3.8953094 1.4020691 7.00988 3.8535843 9.343704c2.2332382 2.132347 4.9030457 3.1985245 8.009422 3.1985245c3.9291534 0 7.0607147 -1.5363007 9.394699 -4.6088943c2.0821075 -2.7535782 3.123169 -6.078026 3.123169 -9.973335c0 -3.576294 -0.88993835 -6.5733337 -2.6697998 -8.991112c-1.981369 -2.6864166 -4.651184 -4.0296288 -8.00943 -4.0296288z" fill-rule="evenodd"/><defs><linearGradient id="p.8" gradientUnits="userSpaceOnUse" gradientTransform="matrix(6.533713501124634 0.0 0.0 6.533713501124634 0.0 0.0)" spreadMethod="pad" x1="3.695349419295549" y1="6.267834213208847" x2="3.6953258814758922" y2="12.801547714291083"><stop offset="0.0" stop-color="#000000"/><stop offset="0.48" stop-color="#a21e1e"/><stop offset="1.0" stop-color="#e14f23"/></linearGradient></defs><path fill="url(#p.8)" d="m154.86414 59.992756c1.9477844 0 3.509369 0.7387657 4.6847534 2.2162971c1.1250153 1.4271584 1.6875153 3.2321014 1.6875153 5.414818c0 2.1827164 -0.68844604 3.993248 -2.0653229 5.4316025c-1.3768768 1.4327545 -3.1315613 2.1491394 -5.2640533 2.1491394c-1.6455383 0 -3.618515 -0.49531555 -5.918915 -1.4859314c-0.016784668 -5.540741 -0.016784668 -9.108643 0 -10.703705c1.4272614 -1.0074043 2.711792 -1.7629623 3.853592 -2.2666664c1.1418152 -0.5037041 2.1492767 -0.7555542 3.0224304 -0.7555542zm-9.394699 -19.040005c-1.2425537 0 -2.1996613 0.59605026 -2.8713074 1.7881508c-0.537323 0.9402466 -0.80596924 2.0148125 -0.80596924 3.2237053l0 28.53482c0 0.40296173 -0.02519226 1.0213928 -0.07556152 1.8553085c-0.05038452 0.8283081 -0.07556152 1.4439468 -0.07556152 1.8469086c0 0.9066696 0.32182312 1.6622238 0.9654846 2.2666702c0.64927673 0.6044464 1.4272614 0.906662 2.3339844 0.906662c0.88993835 0 1.6455383 -0.31061554 2.2668152 -0.9318466c2.1157074 0.82271576 4.348938 1.2340698 6.699707 1.2340698c3.962738 0 7.2873993 -1.3851852 9.973999 -4.1555557c2.6362152 -2.703209 3.9543304 -6.0024643 3.9543304 -9.897774c0 -3.8281517 -1.1334076 -7.085438 -3.4002228 -9.771858c-2.434723 -2.871109 -5.625061 -4.3066673 -9.570999 -4.3066673c-1.0578461 0 -2.1576843 0.17350006 -3.2994843 0.52049637c-1.1417999 0.34140015 -2.3339844 0.85629654 -3.576538 1.5446892l0 -9.645924c0 -0.21827316 0.027999878 -0.5652695 0.083969116 -1.0409889c0.061569214 -0.48131943 0.09234619 -0.8311119 0.09234619 -1.0493851c0 -1.9476547 -0.8983307 -2.921482 -2.694992 -2.921482z" fill-rule="evenodd"/><path stroke="#5b0f00" stroke-width="2.0" stroke-linejoin="round" stroke-linecap="butt" d="m49.683826 42.463863c-1.0578499 0 -2.641819 0.05876541 -4.7519226 0.17629623c-2.1044998 0.11753082 -3.6856728 0.17629623 -4.7435226 0.17629623c-0.5541115 0 -1.393673 -0.01958847 -2.5186844 -0.05876541c-1.1250153 -0.0447731 -1.9729729 -0.067157745 -2.5438728 -0.067157745c-3.0056305 0 -4.5084476 1.1417274 -4.5084476 3.4251823c0 1.0409889 0.36940765 1.8888893 1.108221 2.543705c0.68844223 0.6044464 1.5280037 0.9066658 2.5186844 0.9066658c0.4869461 0 1.4776306 0.03358078 2.9720497 0.10074234c0.745533 0.030220032 1.4003906 0.045333862 1.9645767 0.045333862c0.37612534 0 0.7119484 -0.006717682 1.007473 -0.020149231l0.5792961 -0.025184631c0.050376892 0.85629654 0.07556152 1.4019737 0.07556152 1.6370354c0 5.708645 -0.1259346 10.477039 -0.3778038 14.305191c-0.30224228 4.6844406 -0.4869423 7.295311 -0.55410767 7.832588c-0.2686615 2.2330933 -0.7052345 3.3496323 -1.3097191 3.3496323c-1.4944191 0 -3.0951805 -0.5652695 -4.802292 -1.6958008c-1.7015114 -1.1361313 -2.552269 -2.1995087 -2.552269 -3.1901245c0 -2.585678 -1.1837826 -3.8785172 -3.5513458 -3.8785172c-2.3675652 0 -3.5513477 1.3096313 -3.5513477 3.9288864c0 3.2404938 1.7294979 6.0612335 5.1884937 8.462227c3.0560036 2.1491318 6.1455917 3.2237015 9.268761 3.2237015c3.274292 0 5.532715 -2.0232086 6.7752647 -6.0696335c1.6959152 -5.490364 2.5438728 -14.246418 2.5438728 -26.26815c0 -1.238308 0.005897522 -1.8574638 0.017692566 -1.8574638c0.0022773743 0 0.0047721863 0.023105621 0.00749588 0.069316864l1.9645729 0c0.40298843 0 0.9319153 0.030784607 1.5867729 0.09234619c0.65485764 0.05596924 1.1334076 0.08395004 1.4356499 0.08395004c1.0410576 0 1.9058037 -0.3777771 2.594246 -1.1333313c0.60448456 -0.68839645 0.90672684 -1.4691391 0.90672684 -2.3422241c0 -2.501728 -2.2500267 -3.752594 -6.7500763 -3.752594z" fill-rule="evenodd"/><path stroke="#5b0f00" stroke-width="2.0" stroke-linejoin="round" stroke-linecap="butt" d="m74.03951 60.34535c0.18470764 0 0.40579224 0.03917694 0.6632538 0.11753082c0.26306152 0.07275772 0.5625076 0.19308472 0.8983307 0.36098862c-0.15111542 0.85629654 -0.2658615 1.6342392 -0.3442154 2.333828c-0.072769165 0.6939926 -0.10914612 1.3096275 -0.10914612 1.8469124c0 1.9812317 0.2518692 4.969879 0.7556076 8.965927c-0.82276917 0.671608 -1.7015152 1.1809006 -2.6362228 1.5279007c-0.9291153 0.34140015 -1.9142075 0.5121002 -2.9552612 0.5121002c-1.6119614 0 -2.8209305 -0.5652695 -3.6269073 -1.6958008c-0.80597687 -1.1361389 -1.2089691 -2.8291397 -1.2089691 -5.0790176c0 -2.3506165 0.85635376 -4.418602 2.5690613 -6.203949c1.7127075 -1.790947 3.7108612 -2.6864204 5.9944687 -2.6864204zm-0.32743073 -6.0192604c-4.1642227 0 -7.740753 1.4411545 -10.729595 4.323456c-2.988842 2.876709 -4.483261 6.338272 -4.483261 10.384697c0 4.3150635 1.010273 7.5555573 3.030819 9.721481c2.0261421 2.165924 5.0625534 3.248886 9.109245 3.248886c0.82276917 0 1.821846 -0.19028473 2.9972382 -0.5708618c1.1753845 -0.3749771 2.5354767 -0.93185425 4.080269 -1.6706161c1.6791229 1.6790085 2.9048843 2.5185165 3.6772766 2.5185165c0.88993835 0 1.6735306 -0.29382324 2.3507767 -0.88147736c0.68284607 -0.5876541 1.0242615 -1.3264236 1.0242615 -2.216301c0 -0.20147705 -0.3274231 -1.0242004 -0.98228455 -2.4681473c-0.722023 -1.5950623 -1.108223 -2.4681473 -1.1585922 -2.6192627c-0.45336914 -1.4103699 -0.6800461 -3.7190094 -0.6800461 -6.925926c0 -1.3600006 0.044776917 -2.5465012 0.13433075 -3.5595055c0.09514618 -1.0186005 0.22667694 -1.8637047 0.3945923 -2.5353088c0.38619995 -0.453331 0.5792999 -0.9822235 0.5792999 -1.5866661c0 -1.4439507 -1.2677383 -2.711605 -3.803215 -3.8029633c-2.0989075 -0.9066658 -3.9459457 -1.3600006 -5.541115 -1.3600006z" fill-rule="evenodd"/><path stroke="#5b0f00" stroke-width="2.0" stroke-linejoin="round" stroke-linecap="butt" d="m99.57899 53.84757c-3.5597458 0 -6.6829147 2.0316048 -9.369514 6.094818c-2.3675613 3.5595055 -3.5513458 7.0098763 -3.5513458 10.351109c0 3.6266708 1.3181152 6.548149 3.954338 8.76445c2.501892 2.0987625 5.5998764 3.1481476 9.293953 3.1481476c1.6119537 0 3.694069 -0.5792618 6.246338 -1.7377777c2.8545074 -1.3096313 4.281761 -2.6192627 4.281761 -3.928894c0 -0.8395004 -0.32463074 -1.5866623 -0.9738922 -2.241478c-0.6436615 -0.6548157 -1.4188538 -0.9822235 -2.3255844 -0.9822235c-0.4365692 0 -1.4692307 0.42814636 -3.0979843 1.2844467c-1.628746 0.8562927 -3.0056305 1.2844467 -4.130638 1.2844467c-1.981369 0 -3.576538 -0.47852325 -4.785507 -1.4355621c-1.2761307 -1.0074081 -1.9141998 -2.3925934 -1.9141998 -4.1555557c0 -1.779747 0.722023 -3.8953094 2.166069 -6.3466644c1.5112152 -2.5353088 2.9132767 -3.8029633 4.2062073 -3.8029633c2.0317383 0 3.5541458 0.3917694 4.567215 1.1753082c1.0186691 0.77794266 1.8890152 1.1669121 2.6110382 1.1669121c0.9570999 0 1.7378922 -0.34419632 2.3423767 -1.0325928c0.57089996 -0.6380234 0.85635376 -1.368393 0.85635376 -2.1911087c0 -1.5111122 -1.4188614 -2.8459282 -4.2565765 -4.004448c-2.3339844 -0.9402466 -4.3741226 -1.4103699 -6.120407 -1.4103699z" fill-rule="evenodd"/><path stroke="#5b0f00" stroke-width="2.0" stroke-linejoin="round" stroke-linecap="butt" d="m126.65098 61.151054c0.018051147 0 0.036132812 7.247925E-5 0.054252625 2.2125244E-4c3.0559998 0.016788483 4.474869 2.7283936 4.2565765 8.134811c-0.08395386 1.9812393 -0.7388153 3.551117 -1.9645691 4.709633c-1.074646 0.99061584 -2.3423843 1.4859238 -3.8032227 1.4859238c-1.2089691 0 -2.2668152 -0.42814636 -3.1735458 -1.2844391c-1.1417999 -1.0745697 -1.7126999 -2.6192627 -1.7126999 -4.634079c0 -2.132347 0.5037308 -3.996048 1.5112076 -5.59111c1.1817169 -1.8806419 2.792389 -2.820961 4.8320007 -2.820961zm0.38167572 -6.64867c-4.5504227 0 -8.1017685 1.7125931 -10.654037 5.137779c-2.1492767 2.9046898 -3.1651459 6.212345 -3.0476074 9.922962c0.11753845 3.8953094 1.4020691 7.00988 3.8535843 9.343704c2.2332382 2.132347 4.9030457 3.1985245 8.009422 3.1985245c3.9291534 0 7.0607147 -1.5363007 9.394699 -4.6088943c2.0821075 -2.7535782 3.123169 -6.078026 3.123169 -9.973335c0 -3.576294 -0.88993835 -6.5733337 -2.6697998 -8.991112c-1.981369 -2.6864166 -4.651184 -4.0296288 -8.00943 -4.0296288z" fill-rule="evenodd"/><path stroke="#5b0f00" stroke-width="2.0" stroke-linejoin="round" stroke-linecap="butt" d="m154.86414 59.992756c1.9477844 0 3.509369 0.7387657 4.6847534 2.2162971c1.1250153 1.4271584 1.6875153 3.2321014 1.6875153 5.414818c0 2.1827164 -0.68844604 3.993248 -2.0653229 5.4316025c-1.3768768 1.4327545 -3.1315613 2.1491394 -5.2640533 2.1491394c-1.6455383 0 -3.618515 -0.49531555 -5.918915 -1.4859314c-0.016784668 -5.540741 -0.016784668 -9.108643 0 -10.703705c1.4272614 -1.0074043 2.711792 -1.7629623 3.853592 -2.2666664c1.1418152 -0.5037041 2.1492767 -0.7555542 3.0224304 -0.7555542zm-9.394699 -19.040005c-1.2425537 0 -2.1996613 0.59605026 -2.8713074 1.7881508c-0.537323 0.9402466 -0.80596924 2.0148125 -0.80596924 3.2237053l0 28.53482c0 0.40296173 -0.02519226 1.0213928 -0.07556152 1.8553085c-0.05038452 0.8283081 -0.07556152 1.4439468 -0.07556152 1.8469086c0 0.9066696 0.32182312 1.6622238 0.9654846 2.2666702c0.64927673 0.6044464 1.4272614 0.906662 2.3339844 0.906662c0.88993835 0 1.6455383 -0.31061554 2.2668152 -0.9318466c2.1157074 0.82271576 4.348938 1.2340698 6.699707 1.2340698c3.962738 0 7.2873993 -1.3851852 9.973999 -4.1555557c2.6362152 -2.703209 3.9543304 -6.0024643 3.9543304 -9.897774c0 -3.8281517 -1.1334076 -7.085438 -3.4002228 -9.771858c-2.434723 -2.871109 -5.625061 -4.3066673 -9.570999 -4.3066673c-1.0578461 0 -2.1576843 0.17350006 -3.2994843 0.52049637c-1.1417999 0.34140015 -2.3339844 0.85629654 -3.576538 1.5446892l0 -9.645924c0 -0.21827316 0.027999878 -0.5652695 0.083969116 -1.0409889c0.061569214 -0.48131943 0.09234619 -0.8311119 0.09234619 -1.0493851c0 -1.9476547 -0.8983307 -2.921482 -2.694992 -2.921482z" fill-rule="evenodd"/></g></g></svg>