<svg version="1.1" viewBox="0.0 0.0 144.0 4800.0" fill="none" stroke="none" stroke-linecap="square" stroke-miterlimit="10" xmlns:xlink="http://www.w3.org/1999/xlink" xmlns="http://www.w3.org/2000/svg"><clipPath id="p.0"><path d="m0 0l144.0 0l0 4800.0l-144.0 0l0 -4800.0z" clip-rule="nonzero"/></clipPath><g clip-path="url(#p.0)"><path fill="#000000" fill-opacity="0.0" d="m0 0l144.0 0l0 4800.0l-144.0 0z" fill-rule="evenodd"/><g filter="url(#shadowFilter-p.1)"><use xlink:href="#p.1" transform="matrix(1.0 0.0 0.0 1.0 0.0 2.0)"/></g><defs><filter id="shadowFilter-p.1" filterUnits="userSpaceOnUse"><feGaussianBlur in="SourceAlpha" stdDeviation="2.0" result="blur"/><feComponentTransfer in="blur" color-interpolation-filters="sRGB"><feFuncR type="linear" slope="0" intercept="0.0"/><feFuncG type="linear" slope="0" intercept="0.0"/><feFuncB type="linear" slope="0" intercept="0.0"/><feFuncA type="linear" slope="0.5" intercept="0"/></feComponentTransfer></filter></defs><g id="p.1"><defs><linearGradient id="p.2" gradientUnits="userSpaceOnUse" gradientTransform="matrix(68.44965053835811 0.0 0.0 -68.44965053835811 0.0 0.0)" spreadMethod="pad" x1="-0.021758622565136252" y1="27.348161723804104" x2="-0.022006408855086614" y2="95.79781226171373"><stop offset="0.0" stop-color="#1e50a2"/><stop offset="0.5" stop-color="#a0d8ef"/><stop offset="1.0" stop-color="#ffffff"/></linearGradient></defs><path fill="url(#p.2)" d="m-1.4893701 -1871.9723l13.133859 0l0 0c3.4833155 0 6.823964 -1.383667 9.28704 -3.8468018c2.4630756 -2.4630127 3.846819 -5.803711 3.846819 -9.286987l0 -4672.2207l-26.267717 0z" fill-rule="evenodd"/><path stroke="#1c4587" stroke-width="3.0" stroke-linejoin="round" stroke-linecap="butt" d="m-1.4893701 -1871.9723l13.133859 0l0 0c3.4833155 0 6.823964 -1.383667 9.28704 -3.8468018c2.4630756 -2.4630127 3.846819 -5.803711 3.846819 -9.286987l0 -4672.2207l-26.267717 0z" fill-rule="evenodd"/></g><g filter="url(#shadowFilter-p.3)"><use xlink:href="#p.3" transform="matrix(1.0 0.0 0.0 1.0 0.0 2.0)"/></g><defs><filter id="shadowFilter-p.3" filterUnits="userSpaceOnUse"><feGaussianBlur in="SourceAlpha" stdDeviation="2.0" result="blur"/><feComponentTransfer in="blur" color-interpolation-filters="sRGB"><feFuncR type="linear" slope="0" intercept="0.0"/><feFuncG type="linear" slope="0" intercept="0.0"/><feFuncB type="linear" slope="0" intercept="0.0"/><feFuncA type="linear" slope="0.5" intercept="0"/></feComponentTransfer></filter></defs><g id="p.3"><defs><linearGradient id="p.4" gradientUnits="userSpaceOnUse" gradientTransform="matrix(40.45452065676281 0.0 0.0 40.45452065676281 0.0 0.0)" spreadMethod="pad" x1="0.5721489172370057" y1="-83.12294310513583" x2="0.572593063514006" y2="-123.57746375946053"><stop offset="0.0" stop-color="#1e50a2"/><stop offset="0.5" stop-color="#a0d8ef"/><stop offset="1.0" stop-color="#ffffff"/></linearGradient></defs><path fill="url(#p.4)" d="m0.10531461 -4966.2837l0 1570.6011l0.79528844 0l0 -1570.6011z" fill-rule="evenodd"/><defs><linearGradient id="p.5" gradientUnits="userSpaceOnUse" gradientTransform="matrix(40.45452065676281 0.0 0.0 40.45452065676281 0.0 0.0)" spreadMethod="pad" x1="0.5721489172370057" y1="-83.12294310513583" x2="0.572593063514006" y2="-123.57746375946053"><stop offset="0.0" stop-color="#1e50a2"/><stop offset="0.5" stop-color="#a0d8ef"/><stop offset="1.0" stop-color="#ffffff"/></linearGradient></defs><path fill="url(#p.5)" d="m2.0151403 -4697.5645c0.08689618 0 0.14608622 4.742676 0.17757034 14.228516c0.031484127 9.269531 0.051633835 23.9292 0.06044936 43.978027c0.008815527 20.048828 0.01322341 65.643555 0.01322341 136.78467l0 610.19653c0 104.771484 -0.01322341 169.01392 -0.03966999 192.72754c-0.02644658 23.498047 -0.096971035 35.247314 -0.21157312 35.247314l0 -1033.1626zm-0.79528844 -268.71924l0 1570.6011l1.0030836 0c0.19016385 0 0.3324721 -5.2817383 0.42692423 -15.845215c0.09445238 -10.778809 0.17379236 -29.53418 0.23801994 -56.266113c0.06422758 -26.947266 0.10914469 -64.134766 0.13475204 -111.56201c0.026026487 -47.643066 0.03904009 -141.95874 0.03904009 -282.9475l0 -550.05005c0 -148.74951 -0.008815527 -248.45459 -0.02644658 -299.11572c-0.017631054 -50.876465 -0.06170869 -97.010254 -0.13223314 -138.40186c-0.070524454 -41.391113 -0.17358255 -71.14111 -0.30917382 -89.24951c-0.13517213 -18.108398 -0.39481068 -27.163086 -0.77891684 -27.163086z" fill-rule="evenodd"/><defs><linearGradient id="p.6" gradientUnits="userSpaceOnUse" gradientTransform="matrix(40.45452065676281 0.0 0.0 40.45452065676281 0.0 0.0)" spreadMethod="pad" x1="0.5721489172370057" y1="-83.12294310513583" x2="0.572593063514006" y2="-123.57746375946053"><stop offset="0.0" stop-color="#1e50a2"/><stop offset="0.5" stop-color="#a0d8ef"/><stop offset="1.0" stop-color="#ffffff"/></linearGradient></defs><path fill="url(#p.6)" d="m3.358252 -4966.2837l0 1570.6011l0.79528856 0l0 -1570.6011z" fill-rule="evenodd"/><defs><linearGradient id="p.7" gradientUnits="userSpaceOnUse" gradientTransform="matrix(40.45452065676281 0.0 0.0 40.45452065676281 0.0 0.0)" spreadMethod="pad" x1="0.5721489172370057" y1="-83.12294310513583" x2="0.572593063514006" y2="-123.57746375946053"><stop offset="0.0" stop-color="#1e50a2"/><stop offset="0.5" stop-color="#a0d8ef"/><stop offset="1.0" stop-color="#ffffff"/></linearGradient></defs><path fill="url(#p.7)" d="m5.373864 -4733.458c0.04911518 0 0.08143902 10.239746 0.096971035 30.719727c0.01595211 20.264648 0.023928165 66.9375 0.023928165 140.01855l0 721.75854c0 92.4834 -0.0075564384 151.01318 -0.022668839 175.58911c-0.0151124 24.576172 -0.049744606 36.864014 -0.10389757 36.864014c-0.05289316 0 -0.086686134 -10.671143 -0.10137844 -32.013428c-0.014273167 -21.342285 -0.021409512 -77.6084 -0.021409512 -168.79834l0 -733.3999c0 -80.842285 0.010914326 -129.45508 0.032743454 -145.83936c0.022248745 -16.59961 0.054152966 -24.898926 0.09571171 -24.898926zm-0.0037779808 -265.80908c-0.17253304 0 -0.32365656 14.551758 -0.45337105 43.654785c-0.12971449 29.103027 -0.23277283 70.81738 -0.30917406 125.143555c-0.07598162 54.325684 -0.12131882 114.364746 -0.13601112 180.11621c-0.014273167 65.53613 -0.021409035 177.20605 -0.021409035 335.00977l0 268.71924c0 161.68433 0.0075559616 274.86328 0.022668362 339.53687c0.0151124 64.67383 0.062338352 124.49707 0.14167833 179.46973c0.07933998 54.972656 0.18407679 96.25586 0.31421137 123.8501c0.1305542 27.378418 0.27768993 41.06787 0.4414072 41.06787c0.17253304 0 0.32365656 -14.551758 0.45337105 -43.654785c0.12971449 -29.103271 0.23256254 -70.81787 0.30854416 -125.1438c0.07640123 -54.325684 0.121738434 -114.256836 0.1360116 -179.79272c0.0146923065 -65.75171 0.022038937 -177.5293 0.022038937 -335.33325l0 -268.71924c0 -161.68408 -0.0075564384 -274.86328 -0.022668839 -339.5371c-0.0151124 -64.67334 -0.062338352 -124.49658 -0.14167833 -179.46924c-0.07933998 -54.972656 -0.18428707 -96.14844 -0.31484127 -123.526855c-0.1301341 -27.594238 -0.27706003 -41.391113 -0.4407773 -41.391113z" fill-rule="evenodd"/><defs><linearGradient id="p.8" gradientUnits="userSpaceOnUse" gradientTransform="matrix(40.45452065676281 0.0 0.0 40.45452065676281 0.0 0.0)" spreadMethod="pad" x1="0.5721489172370057" y1="-83.12294310513583" x2="0.572593063514006" y2="-123.57746375946053"><stop offset="0.0" stop-color="#1e50a2"/><stop offset="0.5" stop-color="#a0d8ef"/><stop offset="1.0" stop-color="#ffffff"/></linearGradient></defs><path fill="url(#p.8)" d="m6.4506207 -4966.2837l0 314.31445l0.47037268 0l0 1256.2866l0.7952881 0l0 -1256.2866l0.4722619 0l0 -314.31445zm1.8550434 0l0 314.31445l0.540267 0l-0.612051 1028.3118l0 227.97485l1.4659004 0l0 -314.3142l-0.5931606 0l0.5931606 -941.9724l0 -314.31445z" fill-rule="evenodd"/><defs><linearGradient id="p.9" gradientUnits="userSpaceOnUse" gradientTransform="matrix(40.45452065676281 0.0 0.0 40.45452065676281 0.0 0.0)" spreadMethod="pad" x1="0.5721489172370057" y1="-83.12294310513583" x2="0.572593063514006" y2="-123.57746375946053"><stop offset="0.0" stop-color="#1e50a2"/><stop offset="0.5" stop-color="#a0d8ef"/><stop offset="1.0" stop-color="#ffffff"/></linearGradient></defs><path fill="url(#p.9)" d="m10.806761 -4733.458c0.04911518 0 0.08143902 10.239746 0.09697151 30.719727c0.01595211 20.264648 0.023927689 66.9375 0.023927689 140.01855l0 721.75854c0 92.4834 -0.0075559616 151.01318 -0.022668839 175.58911c-0.015111923 24.576172 -0.049744606 36.864014 -0.103897095 36.864014c-0.05289364 0 -0.086686134 -10.671143 -0.101379395 -32.013428c-0.01427269 -21.342285 -0.021409035 -77.6084 -0.021409035 -168.79834l0 -733.3999c0 -80.842285 0.010914803 -129.45508 0.032743454 -145.83936c0.022249222 -16.59961 0.054153442 -24.898926 0.09571171 -24.898926zm-0.003777504 -265.80908c-0.17253304 0 -0.32365704 14.551758 -0.45337105 43.654785c-0.12971497 29.103027 -0.23277283 70.81738 -0.30917454 125.143555c-0.07598114 54.325684 -0.12131882 114.364746 -0.13601112 180.11621c-0.01427269 65.53613 -0.021409035 177.20605 -0.021409035 335.00977l0 268.71924c0 161.68433 0.0075559616 274.86328 0.022668839 339.53687c0.015111923 64.67383 0.062337875 124.49707 0.14167786 179.46973c0.07933998 54.972656 0.18407726 96.25586 0.31421185 123.8501c0.1305542 27.378418 0.27768993 41.06787 0.4414072 41.06787c0.17253304 0 0.32365608 -14.551758 0.45337105 -43.654785c0.12971401 -29.103271 0.23256207 -70.81787 0.30854416 -125.1438c0.07640076 -54.325684 0.121738434 -114.256836 0.13601112 -179.79272c0.0146923065 -65.75171 0.02203846 -177.5293 0.02203846 -335.33325l0 -268.71924c0 -161.68408 -0.0075559616 -274.86328 -0.022667885 -339.5371c-0.015112877 -64.67334 -0.06233883 -124.49658 -0.14167881 -179.46924c-0.07933998 -54.972656 -0.18428707 -96.14844 -0.31484127 -123.526855c-0.13013363 -27.594238 -0.27705956 -41.391113 -0.44077682 -41.391113z" fill-rule="evenodd"/><defs><linearGradient id="p.10" gradientUnits="userSpaceOnUse" gradientTransform="matrix(40.45452065676281 0.0 0.0 40.45452065676281 0.0 0.0)" spreadMethod="pad" x1="0.5721489172370057" y1="-83.12294310513583" x2="0.572593063514006" y2="-123.57746375946053"><stop offset="0.0" stop-color="#1e50a2"/><stop offset="0.5" stop-color="#a0d8ef"/><stop offset="1.0" stop-color="#ffffff"/></linearGradient></defs><path fill="url(#p.10)" d="m12.019528 -4966.2837l0 1570.6011l0.66494465 0l0 -713.99756l0.41370106 713.99756l0.6970577 0l0 -1570.6011l-0.6649437 0l0 707.20703l-0.4458151 -707.20703z" fill-rule="evenodd"/><defs><linearGradient id="p.11" gradientUnits="userSpaceOnUse" gradientTransform="matrix(40.45452065676281 0.0 0.0 40.45452065676281 0.0 0.0)" spreadMethod="pad" x1="0.5721489172370057" y1="-83.12294310513583" x2="0.572593063514006" y2="-123.57746375946053"><stop offset="0.0" stop-color="#1e50a2"/><stop offset="0.5" stop-color="#a0d8ef"/><stop offset="1.0" stop-color="#ffffff"/></linearGradient></defs><path fill="url(#p.11)" d="m14.114481 -4966.2837l0 1570.6011l1.3790035 0l0 -314.3142l-0.58371544 0l0 -345.35767l0.4968195 0l0 -298.79248l-0.4968195 0l0 -297.82227l0.5308218 0l0 -314.31445z" fill-rule="evenodd"/><defs><linearGradient id="p.12" gradientUnits="userSpaceOnUse" gradientTransform="matrix(40.45452065676281 0.0 0.0 40.45452065676281 0.0 0.0)" spreadMethod="pad" x1="0.5721489172370057" y1="-83.12294310513583" x2="0.572593063514006" y2="-123.57746375946053"><stop offset="0.0" stop-color="#1e50a2"/><stop offset="0.5" stop-color="#a0d8ef"/><stop offset="1.0" stop-color="#ffffff"/></linearGradient></defs><path fill="url(#p.12)" d="m15.631385 -3715.8174l0 320.13477l0.5761595 0l0 -320.13477z" fill-rule="evenodd"/><defs><linearGradient id="p.13" gradientUnits="userSpaceOnUse" gradientTransform="matrix(40.45452065676281 0.0 0.0 40.45452065676281 0.0 0.0)" spreadMethod="pad" x1="0.5721489172370057" y1="-83.12294310513583" x2="0.572593063514006" y2="-123.57746375946053"><stop offset="0.0" stop-color="#1e50a2"/><stop offset="0.5" stop-color="#a0d8ef"/><stop offset="1.0" stop-color="#ffffff"/></linearGradient></defs><path fill="url(#p.13)" d="m17.340971 -4999.267c-0.17253304 0 -0.32533455 15.090332 -0.45840836 45.271484c-0.13265228 29.965332 -0.23654938 71.14111 -0.31169128 123.526855c-0.07472229 52.385742 -0.11964035 106.927246 -0.13475227 163.62451c-0.015111923 56.481445 -0.022668839 141.31201 -0.022668839 254.49072l0 458.8601c0 153.92334 0.024557114 269.25806 0.07367325 346.0044c0.049114227 76.53052 0.14923477 136.46143 0.30035782 179.79297c0.15112305 43.3313 0.3431759 64.99707 0.5761585 64.99707c0.22416687 0 0.41265106 -25.546143 0.5654545 -76.63843c0.15322304 -51.092285 0.25208282 -110.59204 0.29658127 -178.49951c0.044916153 -67.90723 0.06737518 -183.02661 0.06737518 -345.35742l0 -61.1167l-0.7952881 0l0 196.9314c0 86.01611 -0.009235382 140.66528 -0.027706146 163.94775c-0.018051147 23.282715 -0.056671143 34.92383 -0.11586189 34.92383c-0.06170845 0 -0.10137749 -11.641113 -0.11900902 -34.92383c-0.01763153 -23.28247 -0.026447296 -73.0813 -0.026447296 -149.39624l0 -729.51953c0 -79.54834 0.008815765 -131.2876 0.026447296 -155.2168c0.01763153 -23.9292 0.059188843 -35.893555 0.12467575 -35.893555c0.0579319 0 0.095293045 9.916504 0.112083435 29.749512c0.017211914 19.617676 0.025817871 69.20117 0.025817871 148.74951l0 273.56982l0.7952881 0l0 -149.396c0 -146.80957 -0.023927689 -254.92236 -0.071783066 -324.33887c-0.047855377 -69.631836 -0.14797592 -127.73047 -0.30035973 -174.29541c-0.1523819 -46.56494 -0.3456936 -69.84766 -0.579937 -69.84766z" fill-rule="evenodd"/><defs><linearGradient id="p.14" gradientUnits="userSpaceOnUse" gradientTransform="matrix(40.45452065676281 0.0 0.0 40.45452065676281 0.0 0.0)" spreadMethod="pad" x1="0.5721489172370057" y1="-83.12294310513583" x2="0.572593063514006" y2="-123.57746375946053"><stop offset="0.0" stop-color="#1e50a2"/><stop offset="0.5" stop-color="#a0d8ef"/><stop offset="1.0" stop-color="#ffffff"/></linearGradient></defs><path fill="url(#p.14)" d="m19.479372 -4733.458c0.049114227 0 0.081438065 10.239746 0.09697151 30.719727c0.015951157 20.264648 0.023927689 66.9375 0.023927689 140.01855l0 721.75854c0 92.4834 -0.0075569153 151.01318 -0.022668839 175.58911c-0.015111923 24.576172 -0.04974556 36.864014 -0.103897095 36.864014c-0.052894592 0 -0.08668709 -10.671143 -0.101379395 -32.013428c-0.01427269 -21.342285 -0.021409988 -77.6084 -0.021409988 -168.79834l0 -733.3999c0 -80.842285 0.010915756 -129.45508 0.032743454 -145.83936c0.022249222 -16.59961 0.054153442 -24.898926 0.09571266 -24.898926zm-0.0037784576 -265.80908c-0.17253304 0 -0.32365608 14.551758 -0.45337105 43.654785c-0.12971497 29.103027 -0.23277283 70.81738 -0.30917358 125.143555c-0.07598114 54.325684 -0.12131882 114.364746 -0.13601112 180.11621c-0.01427269 65.53613 -0.021409988 177.20605 -0.021409988 335.00977l0 268.71924c0 161.68433 0.0075569153 274.86328 0.022668839 339.53687c0.015111923 64.67383 0.062337875 124.49707 0.14167786 179.46973c0.07933998 54.972656 0.18407822 96.25586 0.3142128 123.8501c0.1305542 27.378418 0.27768898 41.06787 0.44140625 41.06787c0.17253304 0 0.32365608 -14.551758 0.45337105 -43.654785c0.12971497 -29.103271 0.23256302 -70.81787 0.30854416 -125.1438c0.07640076 -54.325684 0.121738434 -114.256836 0.13601112 -179.79272c0.0146923065 -65.75171 0.022039413 -177.5293 0.022039413 -335.33325l0 -268.71924c0 -161.68408 -0.0075569153 -274.86328 -0.022668839 -339.5371c-0.015111923 -64.67334 -0.062337875 -124.49658 -0.14167786 -179.46924c-0.07933998 -54.972656 -0.18428802 -96.14844 -0.31484222 -123.526855c-0.13013268 -27.594238 -0.27705956 -41.391113 -0.44077682 -41.391113z" fill-rule="evenodd"/><defs><linearGradient id="p.15" gradientUnits="userSpaceOnUse" gradientTransform="matrix(40.45452065676281 0.0 0.0 40.45452065676281 0.0 0.0)" spreadMethod="pad" x1="0.5721489172370057" y1="-83.12294310513583" x2="0.572593063514006" y2="-123.57746375946053"><stop offset="0.0" stop-color="#1e50a2"/><stop offset="0.5" stop-color="#a0d8ef"/><stop offset="1.0" stop-color="#ffffff"/></linearGradient></defs><path fill="url(#p.15)" d="m20.692139 -4966.2837l0 1570.6011l0.69516945 0l0 -1036.0728l0.2928028 1036.0728l0.49304008 0l0.2776909 -1060.3252l0 1060.3252l0.69516945 0l0 -1570.6011l-1.0370865 0l-0.1813488 733.3999l-0.109565735 -399.6836c-0.034002304 -128.05371 -0.06611633 -239.29248 -0.09634018 -333.7163z" fill-rule="evenodd"/><path stroke="#1c4587" stroke-width="2.0" stroke-linejoin="round" stroke-linecap="butt" d="m0.10531461 -4966.2837l0 1570.6011l0.79528844 0l0 -1570.6011z" fill-rule="evenodd"/><path stroke="#1c4587" stroke-width="2.0" stroke-linejoin="round" stroke-linecap="butt" d="m2.0151403 -4697.5645c0.08689618 0 0.14608622 4.742676 0.17757034 14.228516c0.031484127 9.269531 0.051633835 23.9292 0.06044936 43.978027c0.008815527 20.048828 0.01322341 65.643555 0.01322341 136.78467l0 610.19653c0 104.771484 -0.01322341 169.01392 -0.03966999 192.72754c-0.02644658 23.498047 -0.096971035 35.247314 -0.21157312 35.247314l0 -1033.1626zm-0.79528844 -268.71924l0 1570.6011l1.0030836 0c0.19016385 0 0.3324721 -5.2817383 0.42692423 -15.845215c0.09445238 -10.778809 0.17379236 -29.53418 0.23801994 -56.266113c0.06422758 -26.947266 0.10914469 -64.134766 0.13475204 -111.56201c0.026026487 -47.643066 0.03904009 -141.95874 0.03904009 -282.9475l0 -550.05005c0 -148.74951 -0.008815527 -248.45459 -0.02644658 -299.11572c-0.017631054 -50.876465 -0.06170869 -97.010254 -0.13223314 -138.40186c-0.070524454 -41.391113 -0.17358255 -71.14111 -0.30917382 -89.24951c-0.13517213 -18.108398 -0.39481068 -27.163086 -0.77891684 -27.163086z" fill-rule="evenodd"/><path stroke="#1c4587" stroke-width="2.0" stroke-linejoin="round" stroke-linecap="butt" d="m3.358252 -4966.2837l0 1570.6011l0.79528856 0l0 -1570.6011z" fill-rule="evenodd"/><path stroke="#1c4587" stroke-width="2.0" stroke-linejoin="round" stroke-linecap="butt" d="m5.373864 -4733.458c0.04911518 0 0.08143902 10.239746 0.096971035 30.719727c0.01595211 20.264648 0.023928165 66.9375 0.023928165 140.01855l0 721.75854c0 92.4834 -0.0075564384 151.01318 -0.022668839 175.58911c-0.0151124 24.576172 -0.049744606 36.864014 -0.10389757 36.864014c-0.05289316 0 -0.086686134 -10.671143 -0.10137844 -32.013428c-0.014273167 -21.342285 -0.021409512 -77.6084 -0.021409512 -168.79834l0 -733.3999c0 -80.842285 0.010914326 -129.45508 0.032743454 -145.83936c0.022248745 -16.59961 0.054152966 -24.898926 0.09571171 -24.898926zm-0.0037779808 -265.80908c-0.17253304 0 -0.32365656 14.551758 -0.45337105 43.654785c-0.12971449 29.103027 -0.23277283 70.81738 -0.30917406 125.143555c-0.07598162 54.325684 -0.12131882 114.364746 -0.13601112 180.11621c-0.014273167 65.53613 -0.021409035 177.20605 -0.021409035 335.00977l0 268.71924c0 161.68433 0.0075559616 274.86328 0.022668362 339.53687c0.0151124 64.67383 0.062338352 124.49707 0.14167833 179.46973c0.07933998 54.972656 0.18407679 96.25586 0.31421137 123.8501c0.1305542 27.378418 0.27768993 41.06787 0.4414072 41.06787c0.17253304 0 0.32365656 -14.551758 0.45337105 -43.654785c0.12971449 -29.103271 0.23256254 -70.81787 0.30854416 -125.1438c0.07640123 -54.325684 0.121738434 -114.256836 0.1360116 -179.79272c0.0146923065 -65.75171 0.022038937 -177.5293 0.022038937 -335.33325l0 -268.71924c0 -161.68408 -0.0075564384 -274.86328 -0.022668839 -339.5371c-0.0151124 -64.67334 -0.062338352 -124.49658 -0.14167833 -179.46924c-0.07933998 -54.972656 -0.18428707 -96.14844 -0.31484127 -123.526855c-0.1301341 -27.594238 -0.27706003 -41.391113 -0.4407773 -41.391113z" fill-rule="evenodd"/><path stroke="#1c4587" stroke-width="2.0" stroke-linejoin="round" stroke-linecap="butt" d="m6.4506207 -4966.2837l0 314.31445l0.47037268 0l0 1256.2866l0.7952881 0l0 -1256.2866l0.4722619 0l0 -314.31445zm1.8550434 0l0 314.31445l0.540267 0l-0.612051 1028.3118l0 227.97485l1.4659004 0l0 -314.3142l-0.5931606 0l0.5931606 -941.9724l0 -314.31445z" fill-rule="evenodd"/><path stroke="#1c4587" stroke-width="2.0" stroke-linejoin="round" stroke-linecap="butt" d="m10.806761 -4733.458c0.04911518 0 0.08143902 10.239746 0.09697151 30.719727c0.01595211 20.264648 0.023927689 66.9375 0.023927689 140.01855l0 721.75854c0 92.4834 -0.0075559616 151.01318 -0.022668839 175.58911c-0.015111923 24.576172 -0.049744606 36.864014 -0.103897095 36.864014c-0.05289364 0 -0.086686134 -10.671143 -0.101379395 -32.013428c-0.01427269 -21.342285 -0.021409035 -77.6084 -0.021409035 -168.79834l0 -733.3999c0 -80.842285 0.010914803 -129.45508 0.032743454 -145.83936c0.022249222 -16.59961 0.054153442 -24.898926 0.09571171 -24.898926zm-0.003777504 -265.80908c-0.17253304 0 -0.32365704 14.551758 -0.45337105 43.654785c-0.12971497 29.103027 -0.23277283 70.81738 -0.30917454 125.143555c-0.07598114 54.325684 -0.12131882 114.364746 -0.13601112 180.11621c-0.01427269 65.53613 -0.021409035 177.20605 -0.021409035 335.00977l0 268.71924c0 161.68433 0.0075559616 274.86328 0.022668839 339.53687c0.015111923 64.67383 0.062337875 124.49707 0.14167786 179.46973c0.07933998 54.972656 0.18407726 96.25586 0.31421185 123.8501c0.1305542 27.378418 0.27768993 41.06787 0.4414072 41.06787c0.17253304 0 0.32365608 -14.551758 0.45337105 -43.654785c0.12971401 -29.103271 0.23256207 -70.81787 0.30854416 -125.1438c0.07640076 -54.325684 0.121738434 -114.256836 0.13601112 -179.79272c0.0146923065 -65.75171 0.02203846 -177.5293 0.02203846 -335.33325l0 -268.71924c0 -161.68408 -0.0075559616 -274.86328 -0.022667885 -339.5371c-0.015112877 -64.67334 -0.06233883 -124.49658 -0.14167881 -179.46924c-0.07933998 -54.972656 -0.18428707 -96.14844 -0.31484127 -123.526855c-0.13013363 -27.594238 -0.27705956 -41.391113 -0.44077682 -41.391113z" fill-rule="evenodd"/><path stroke="#1c4587" stroke-width="2.0" stroke-linejoin="round" stroke-linecap="butt" d="m12.019528 -4966.2837l0 1570.6011l0.66494465 0l0 -713.99756l0.41370106 713.99756l0.6970577 0l0 -1570.6011l-0.6649437 0l0 707.20703l-0.4458151 -707.20703z" fill-rule="evenodd"/><path stroke="#1c4587" stroke-width="2.0" stroke-linejoin="round" stroke-linecap="butt" d="m14.114481 -4966.2837l0 1570.6011l1.3790035 0l0 -314.3142l-0.58371544 0l0 -345.35767l0.4968195 0l0 -298.79248l-0.4968195 0l0 -297.82227l0.5308218 0l0 -314.31445z" fill-rule="evenodd"/><path stroke="#1c4587" stroke-width="2.0" stroke-linejoin="round" stroke-linecap="butt" d="m15.631385 -3715.8174l0 320.13477l0.5761595 0l0 -320.13477z" fill-rule="evenodd"/><path stroke="#1c4587" stroke-width="2.0" stroke-linejoin="round" stroke-linecap="butt" d="m17.340971 -4999.267c-0.17253304 0 -0.32533455 15.090332 -0.45840836 45.271484c-0.13265228 29.965332 -0.23654938 71.14111 -0.31169128 123.526855c-0.07472229 52.385742 -0.11964035 106.927246 -0.13475227 163.62451c-0.015111923 56.481445 -0.022668839 141.31201 -0.022668839 254.49072l0 458.8601c0 153.92334 0.024557114 269.25806 0.07367325 346.0044c0.049114227 76.53052 0.14923477 136.46143 0.30035782 179.79297c0.15112305 43.3313 0.3431759 64.99707 0.5761585 64.99707c0.22416687 0 0.41265106 -25.546143 0.5654545 -76.63843c0.15322304 -51.092285 0.25208282 -110.59204 0.29658127 -178.49951c0.044916153 -67.90723 0.06737518 -183.02661 0.06737518 -345.35742l0 -61.1167l-0.7952881 0l0 196.9314c0 86.01611 -0.009235382 140.66528 -0.027706146 163.94775c-0.018051147 23.282715 -0.056671143 34.92383 -0.11586189 34.92383c-0.06170845 0 -0.10137749 -11.641113 -0.11900902 -34.92383c-0.01763153 -23.28247 -0.026447296 -73.0813 -0.026447296 -149.39624l0 -729.51953c0 -79.54834 0.008815765 -131.2876 0.026447296 -155.2168c0.01763153 -23.9292 0.059188843 -35.893555 0.12467575 -35.893555c0.0579319 0 0.095293045 9.916504 0.112083435 29.749512c0.017211914 19.617676 0.025817871 69.20117 0.025817871 148.74951l0 273.56982l0.7952881 0l0 -149.396c0 -146.80957 -0.023927689 -254.92236 -0.071783066 -324.33887c-0.047855377 -69.631836 -0.14797592 -127.73047 -0.30035973 -174.29541c-0.1523819 -46.56494 -0.3456936 -69.84766 -0.579937 -69.84766z" fill-rule="evenodd"/><path stroke="#1c4587" stroke-width="2.0" stroke-linejoin="round" stroke-linecap="butt" d="m19.479372 -4733.458c0.049114227 0 0.081438065 10.239746 0.09697151 30.719727c0.015951157 20.264648 0.023927689 66.9375 0.023927689 140.01855l0 721.75854c0 92.4834 -0.0075569153 151.01318 -0.022668839 175.58911c-0.015111923 24.576172 -0.04974556 36.864014 -0.103897095 36.864014c-0.052894592 0 -0.08668709 -10.671143 -0.101379395 -32.013428c-0.01427269 -21.342285 -0.021409988 -77.6084 -0.021409988 -168.79834l0 -733.3999c0 -80.842285 0.010915756 -129.45508 0.032743454 -145.83936c0.022249222 -16.59961 0.054153442 -24.898926 0.09571266 -24.898926zm-0.0037784576 -265.80908c-0.17253304 0 -0.32365608 14.551758 -0.45337105 43.654785c-0.12971497 29.103027 -0.23277283 70.81738 -0.30917358 125.143555c-0.07598114 54.325684 -0.12131882 114.364746 -0.13601112 180.11621c-0.01427269 65.53613 -0.021409988 177.20605 -0.021409988 335.00977l0 268.71924c0 161.68433 0.0075569153 274.86328 0.022668839 339.53687c0.015111923 64.67383 0.062337875 124.49707 0.14167786 179.46973c0.07933998 54.972656 0.18407822 96.25586 0.3142128 123.8501c0.1305542 27.378418 0.27768898 41.06787 0.44140625 41.06787c0.17253304 0 0.32365608 -14.551758 0.45337105 -43.654785c0.12971497 -29.103271 0.23256302 -70.81787 0.30854416 -125.1438c0.07640076 -54.325684 0.121738434 -114.256836 0.13601112 -179.79272c0.0146923065 -65.75171 0.022039413 -177.5293 0.022039413 -335.33325l0 -268.71924c0 -161.68408 -0.0075569153 -274.86328 -0.022668839 -339.5371c-0.015111923 -64.67334 -0.062337875 -124.49658 -0.14167786 -179.46924c-0.07933998 -54.972656 -0.18428802 -96.14844 -0.31484222 -123.526855c-0.13013268 -27.594238 -0.27705956 -41.391113 -0.44077682 -41.391113z" fill-rule="evenodd"/><path stroke="#1c4587" stroke-width="2.0" stroke-linejoin="round" stroke-linecap="butt" d="m20.692139 -4966.2837l0 1570.6011l0.69516945 0l0 -1036.0728l0.2928028 1036.0728l0.49304008 0l0.2776909 -1060.3252l0 1060.3252l0.69516945 0l0 -1570.6011l-1.0370865 0l-0.1813488 733.3999l-0.109565735 -399.6836c-0.034002304 -128.05371 -0.06611633 -239.29248 -0.09634018 -333.7163z" fill-rule="evenodd"/></g><g filter="url(#shadowFilter-p.16)"><use xlink:href="#p.16" transform="matrix(1.0 0.0 0.0 1.0 0.0 2.0)"/></g><defs><filter id="shadowFilter-p.16" filterUnits="userSpaceOnUse"><feGaussianBlur in="SourceAlpha" stdDeviation="2.0" result="blur"/><feComponentTransfer in="blur" color-interpolation-filters="sRGB"><feFuncR type="linear" slope="0" intercept="0.0"/><feFuncG type="linear" slope="0" intercept="0.0"/><feFuncB type="linear" slope="0" intercept="0.0"/><feFuncA type="linear" slope="0.5" intercept="0"/></feComponentTransfer></filter></defs><g id="p.16"><defs><linearGradient id="p.17" gradientUnits="userSpaceOnUse" gradientTransform="matrix(0.0 10.856702957400051 -10.856702957400051 0.0 0.0 0.0)" spreadMethod="pad" x1="442.2201510311985" y1="-1.6169075815548496E-6" x2="442.215920303075" y2="-10.856703749975363"><stop offset="0.0" stop-color="#1e50a2"/><stop offset="0.5" stop-color="#a0d8ef"/><stop offset="1.0" stop-color="#ffffff"/></linearGradient></defs><path fill="url(#p.17)" d="m116.0 0l0 4801.008l-116.0 0l0 -4801.008z" fill-rule="evenodd"/><path stroke="#1c4587" stroke-width="3.0" stroke-linejoin="round" stroke-linecap="butt" d="m116.0 0l0 4801.008l-116.0 0l0 -4801.008z" fill-rule="evenodd"/></g></g></svg>