<svg version="1.1" viewBox="0.0 0.0 192.0 124.61417322834646" fill="none" stroke="none" stroke-linecap="square" stroke-miterlimit="10" xmlns:xlink="http://www.w3.org/1999/xlink" xmlns="http://www.w3.org/2000/svg"><clipPath id="p.0"><path d="m0 0l192.0 0l0 124.614174l-192.0 0l0 -124.614174z" clip-rule="nonzero"/></clipPath><g clip-path="url(#p.0)"><path fill="#000000" fill-opacity="0.0" d="m0 0l192.0 0l0 124.614174l-192.0 0z" fill-rule="evenodd"/><g mask="url(#mask-p.1)"><use xlink:href="#p.1" transform="matrix(1.0 0.0 0.0 -1.0 0.0 217.79527559055117)"/></g><defs><mask id="mask-p.1" maskUnits="userSpaceOnUse" x="4.416010498687664" y="108.89763779527559" width="183.00787401574803" height="93.18110236220474"><linearGradient gradientUnits="userSpaceOnUse" id="gradient-p.1" x1="4.41601050108586" y1="108.89697530858773" x2="4.415983515721337" y2="116.35151632977947"><stop offset="0%" stop-color="#ffffff" stop-opacity="1.0"/><stop offset="100%" stop-color="#ffffff" stop-opacity="0.0"/></linearGradient><rect fill="url(#gradient-p.1)" x="4.416010498687664" y="108.89763779527559" width="183.00787401574803" height="93.18110236220474"/></mask></defs><g id="p.1"><defs><linearGradient id="p.2" gradientUnits="userSpaceOnUse" gradientTransform="matrix(9.550809249122876 0.0 0.0 9.550809249122876 0.0 0.0)" spreadMethod="pad" x1="0.5670742705549859" y1="1.7464145378670206" x2="0.565129254814133" y2="11.297223588939334"><stop offset="0.0" stop-color="#1e50a2"/><stop offset="0.5" stop-color="#a0d8ef"/><stop offset="1.0" stop-color="#1e50a2"/></linearGradient></defs><path fill="url(#p.2)" d="m5.4160104 31.91369l0 0c0 -8.393158 6.8039975 -15.197155 15.197155 -15.197155l150.61357 0c4.030533 0 7.895996 1.6011238 10.746017 4.4511433c2.850006 2.8500195 4.4511414 6.715475 4.4511414 10.746012l0 60.786797c0 8.393158 -6.804001 15.197151 -15.197159 15.197151l-150.61357 0c-8.393157 0 -15.197155 -6.803993 -15.197155 -15.197151z" fill-rule="evenodd"/><path stroke="#1c4587" stroke-width="2.0" stroke-linejoin="round" stroke-linecap="butt" d="m5.4160104 31.91369l0 0c0 -8.393158 6.8039975 -15.197155 15.197155 -15.197155l150.61357 0c4.030533 0 7.895996 1.6011238 10.746017 4.4511433c2.850006 2.8500195 4.4511414 6.715475 4.4511414 10.746012l0 60.786797c0 8.393158 -6.804001 15.197151 -15.197159 15.197151l-150.61357 0c-8.393157 0 -15.197155 -6.803993 -15.197155 -15.197151z" fill-rule="evenodd"/></g><g filter="url(#shadowFilter-p.3)"><use xlink:href="#p.3" transform="matrix(1.0 0.0 0.0 1.0 0.0 2.0)"/></g><defs><filter id="shadowFilter-p.3" filterUnits="userSpaceOnUse"><feGaussianBlur in="SourceAlpha" stdDeviation="2.0" result="blur"/><feComponentTransfer in="blur" color-interpolation-filters="sRGB"><feFuncR type="linear" slope="0" intercept="0.0"/><feFuncG type="linear" slope="0" intercept="0.0"/><feFuncB type="linear" slope="0" intercept="0.0"/><feFuncA type="linear" slope="0.5" intercept="0"/></feComponentTransfer></filter></defs><g id="p.3"><defs><linearGradient id="p.4" gradientUnits="userSpaceOnUse" gradientTransform="matrix(6.387137670832978 0.0 0.0 6.387137670832978 0.0 0.0)" spreadMethod="pad" x1="7.067188768715196" y1="6.558089587777319" x2="7.065887755221385" y2="12.9452271261068"><stop offset="0.0" stop-color="#1e50a2"/><stop offset="0.5" stop-color="#a0d8ef"/><stop offset="1.0" stop-color="#1e50a2"/></linearGradient></defs><path fill="url(#p.4)" d="m45.139107 41.908134l0 40.77482l9.268761 0l0 -26.897781l3.903965 26.897781l6.573765 0l3.7024689 -27.527409l0 27.527409l9.268761 0l0 -40.77482l-13.827583 0l-2.4179344 19.04l-1.4608383 -10.376297c-0.4533615 -3.3244438 -0.8815384 -6.212345 -1.2845306 -8.663704z" fill-rule="evenodd"/><defs><linearGradient id="p.5" gradientUnits="userSpaceOnUse" gradientTransform="matrix(6.387137670832978 0.0 0.0 6.387137670832978 0.0 0.0)" spreadMethod="pad" x1="7.067188768715196" y1="6.558089587777319" x2="7.065887755221385" y2="12.9452271261068"><stop offset="0.0" stop-color="#1e50a2"/><stop offset="0.5" stop-color="#a0d8ef"/><stop offset="1.0" stop-color="#1e50a2"/></linearGradient></defs><path fill="url(#p.5)" d="m93.195625 51.025173c0.537323 6.7832108 1.0746384 12.483456 1.6119614 17.100742l-3.6269073 0c0.26865387 -3.6098785 0.9403076 -9.310127 2.014946 -17.100742zm-8.110168 -9.117039l-5.389984 40.77482l10.981468 0l0.6296692 -7.328888l3.803215 0l0.52892303 7.328888l10.855537 0l-6.07003 -40.77482z" fill-rule="evenodd"/><defs><linearGradient id="p.6" gradientUnits="userSpaceOnUse" gradientTransform="matrix(6.387137670832978 0.0 0.0 6.387137670832978 0.0 0.0)" spreadMethod="pad" x1="7.067188768715196" y1="6.558089587777319" x2="7.065887755221385" y2="12.9452271261068"><stop offset="0.0" stop-color="#1e50a2"/><stop offset="0.5" stop-color="#a0d8ef"/><stop offset="1.0" stop-color="#1e50a2"/></linearGradient></defs><path fill="url(#p.6)" d="m108.30774 41.908134l0 40.77482l10.603668 0l0 -40.77482z" fill-rule="evenodd"/><defs><linearGradient id="p.7" gradientUnits="userSpaceOnUse" gradientTransform="matrix(6.387137670832978 0.0 0.0 6.387137670832978 0.0 0.0)" spreadMethod="pad" x1="7.067188768715196" y1="6.558089587777319" x2="7.065887755221385" y2="12.9452271261068"><stop offset="0.0" stop-color="#1e50a2"/><stop offset="0.5" stop-color="#a0d8ef"/><stop offset="1.0" stop-color="#1e50a2"/></linearGradient></defs><path fill="url(#p.7)" d="m123.167984 41.908134l0 40.77482l8.865768 0l0 -18.5363l5.51593 18.5363l9.293945 0l0 -40.77482l-8.865768 0l0 18.36l-5.944107 -18.36z" fill-rule="evenodd"/><path stroke="#1c4587" stroke-width="2.0" stroke-linejoin="round" stroke-linecap="butt" d="m45.139107 41.908134l0 40.77482l9.268761 0l0 -26.897781l3.903965 26.897781l6.573765 0l3.7024689 -27.527409l0 27.527409l9.268761 0l0 -40.77482l-13.827583 0l-2.4179344 19.04l-1.4608383 -10.376297c-0.4533615 -3.3244438 -0.8815384 -6.212345 -1.2845306 -8.663704z" fill-rule="evenodd"/><path stroke="#1c4587" stroke-width="2.0" stroke-linejoin="round" stroke-linecap="butt" d="m93.195625 51.025173c0.537323 6.7832108 1.0746384 12.483456 1.6119614 17.100742l-3.6269073 0c0.26865387 -3.6098785 0.9403076 -9.310127 2.014946 -17.100742zm-8.110168 -9.117039l-5.389984 40.77482l10.981468 0l0.6296692 -7.328888l3.803215 0l0.52892303 7.328888l10.855537 0l-6.07003 -40.77482z" fill-rule="evenodd"/><path stroke="#1c4587" stroke-width="2.0" stroke-linejoin="round" stroke-linecap="butt" d="m108.30774 41.908134l0 40.77482l10.603668 0l0 -40.77482z" fill-rule="evenodd"/><path stroke="#1c4587" stroke-width="2.0" stroke-linejoin="round" stroke-linecap="butt" d="m123.167984 41.908134l0 40.77482l8.865768 0l0 -18.5363l5.51593 18.5363l9.293945 0l0 -40.77482l-8.865768 0l0 18.36l-5.944107 -18.36z" fill-rule="evenodd"/></g></g></svg>