<svg version="1.1" viewBox="0.0 0.0 192.0 124.61417322834646" fill="none" stroke="none" stroke-linecap="square" stroke-miterlimit="10" xmlns:xlink="http://www.w3.org/1999/xlink" xmlns="http://www.w3.org/2000/svg"><clipPath id="p.0"><path d="m0 0l192.0 0l0 124.614174l-192.0 0l0 -124.614174z" clip-rule="nonzero"/></clipPath><g clip-path="url(#p.0)"><path fill="#000000" fill-opacity="0.0" d="m0 0l192.0 0l0 124.614174l-192.0 0z" fill-rule="evenodd"/><g filter="url(#shadowFilter-p.1)"><use xlink:href="#p.1" transform="matrix(1.0 0.0 0.0 1.0 0.0 2.0)"/></g><defs><filter id="shadowFilter-p.1" filterUnits="userSpaceOnUse"><feGaussianBlur in="SourceAlpha" stdDeviation="2.0" result="blur"/><feComponentTransfer in="blur" color-interpolation-filters="sRGB"><feFuncR type="linear" slope="0" intercept="0.0"/><feFuncG type="linear" slope="0" intercept="0.0"/><feFuncB type="linear" slope="0" intercept="0.0"/><feFuncA type="linear" slope="0.5" intercept="0"/></feComponentTransfer></filter></defs><g id="p.1"><defs><linearGradient id="p.2" gradientUnits="userSpaceOnUse" gradientTransform="matrix(9.552566506173404 0.0 0.0 9.552566506173404 0.0 0.0)" spreadMethod="pad" x1="19.519294471836446" y1="11.29514539081423" x2="19.51557875977192" y2="1.7425796073008923"><stop offset="0.0" stop-color="#1e50a2"/><stop offset="0.5" stop-color="#a0d8ef"/><stop offset="1.0" stop-color="#ffffff"/></linearGradient></defs><path fill="url(#p.2)" d="m5.4160104 31.91369l0 0c0 -8.393158 6.8039975 -15.197155 15.197155 -15.197155l150.61357 0c4.030533 0 7.895996 1.6011238 10.746017 4.4511433c2.850006 2.8500195 4.4511414 6.715475 4.4511414 10.746012l0 60.786797c0 8.393158 -6.804001 15.197151 -15.197159 15.197151l-150.61357 0c-8.393157 0 -15.197155 -6.803993 -15.197155 -15.197151z" fill-rule="evenodd"/><path stroke="#1c4587" stroke-width="2.0" stroke-linejoin="round" stroke-linecap="butt" d="m5.4160104 31.91369l0 0c0 -8.393158 6.8039975 -15.197155 15.197155 -15.197155l150.61357 0c4.030533 0 7.895996 1.6011238 10.746017 4.4511433c2.850006 2.8500195 4.4511414 6.715475 4.4511414 10.746012l0 60.786797c0 8.393158 -6.804001 15.197151 -15.197159 15.197151l-150.61357 0c-8.393157 0 -15.197155 -6.803993 -15.197155 -15.197151z" fill-rule="evenodd"/></g><g filter="url(#shadowFilter-p.3)"><use xlink:href="#p.3" transform="matrix(1.0 0.0 0.0 1.0 0.0 2.0)"/></g><defs><filter id="shadowFilter-p.3" filterUnits="userSpaceOnUse"><feGaussianBlur in="SourceAlpha" stdDeviation="2.0" result="blur"/><feComponentTransfer in="blur" color-interpolation-filters="sRGB"><feFuncR type="linear" slope="0" intercept="0.0"/><feFuncG type="linear" slope="0" intercept="0.0"/><feFuncB type="linear" slope="0" intercept="0.0"/><feFuncA type="linear" slope="0.5" intercept="0"/></feComponentTransfer></filter></defs><g id="p.3"><defs><linearGradient id="p.4" gradientUnits="userSpaceOnUse" gradientTransform="matrix(6.3856038539639455 0.0 0.0 6.3856038539639455 0.0 0.0)" spreadMethod="pad" x1="22.983711472689112" y1="12.94851237063822" x2="22.98378211839403" y2="6.562908517065062"><stop offset="0.0" stop-color="#1e50a2"/><stop offset="0.5" stop-color="#a0d8ef"/><stop offset="1.0" stop-color="#ffffff"/></linearGradient></defs><path fill="url(#p.4)" d="m45.060368 41.908134l0 40.77482l9.268761 0l0 -26.897781l3.9039612 26.897781l6.5737724 0l3.7024689 -27.527409l0 27.527409l9.268761 0l0 -40.77482l-13.827583 0l-2.4179382 19.04l-1.4608383 -10.376297c-0.45336533 -3.3244438 -0.8815384 -6.212345 -1.2845306 -8.663704z" fill-rule="evenodd"/><defs><linearGradient id="p.5" gradientUnits="userSpaceOnUse" gradientTransform="matrix(6.3856038539639455 0.0 0.0 6.3856038539639455 0.0 0.0)" spreadMethod="pad" x1="22.983711472689112" y1="12.94851237063822" x2="22.98378211839403" y2="6.562908517065062"><stop offset="0.0" stop-color="#1e50a2"/><stop offset="0.5" stop-color="#a0d8ef"/><stop offset="1.0" stop-color="#ffffff"/></linearGradient></defs><path fill="url(#p.5)" d="m93.11688 51.025173c0.537323 6.7832108 1.0746384 12.483456 1.6119614 17.100742l-3.6269073 0c0.2686615 -3.6098785 0.9403076 -9.310127 2.014946 -17.100742zm-8.110161 -9.117039l-5.3899918 40.77482l10.981468 0l0.6296692 -7.328888l3.803215 0l0.52893066 7.328888l10.85553 0l-6.07003 -40.77482z" fill-rule="evenodd"/><defs><linearGradient id="p.6" gradientUnits="userSpaceOnUse" gradientTransform="matrix(6.3856038539639455 0.0 0.0 6.3856038539639455 0.0 0.0)" spreadMethod="pad" x1="22.983711472689112" y1="12.94851237063822" x2="22.98378211839403" y2="6.562908517065062"><stop offset="0.0" stop-color="#1e50a2"/><stop offset="0.5" stop-color="#a0d8ef"/><stop offset="1.0" stop-color="#ffffff"/></linearGradient></defs><path fill="url(#p.6)" d="m108.229 41.908134l0 40.77482l10.603668 0l0 -40.77482z" fill-rule="evenodd"/><defs><linearGradient id="p.7" gradientUnits="userSpaceOnUse" gradientTransform="matrix(6.3856038539639455 0.0 0.0 6.3856038539639455 0.0 0.0)" spreadMethod="pad" x1="22.983711472689112" y1="12.94851237063822" x2="22.98378211839403" y2="6.562908517065062"><stop offset="0.0" stop-color="#1e50a2"/><stop offset="0.5" stop-color="#a0d8ef"/><stop offset="1.0" stop-color="#ffffff"/></linearGradient></defs><path fill="url(#p.7)" d="m123.08924 41.908134l0 40.77482l8.865776 0l0 -18.5363l5.515915 18.5363l9.293961 0l0 -40.77482l-8.865784 0l0 18.36l-5.944092 -18.36z" fill-rule="evenodd"/><path stroke="#1c4587" stroke-width="2.0" stroke-linejoin="round" stroke-linecap="butt" d="m45.060368 41.908134l0 40.77482l9.268761 0l0 -26.897781l3.9039612 26.897781l6.5737724 0l3.7024689 -27.527409l0 27.527409l9.268761 0l0 -40.77482l-13.827583 0l-2.4179382 19.04l-1.4608383 -10.376297c-0.45336533 -3.3244438 -0.8815384 -6.212345 -1.2845306 -8.663704z" fill-rule="evenodd"/><path stroke="#1c4587" stroke-width="2.0" stroke-linejoin="round" stroke-linecap="butt" d="m93.11688 51.025173c0.537323 6.7832108 1.0746384 12.483456 1.6119614 17.100742l-3.6269073 0c0.2686615 -3.6098785 0.9403076 -9.310127 2.014946 -17.100742zm-8.110161 -9.117039l-5.3899918 40.77482l10.981468 0l0.6296692 -7.328888l3.803215 0l0.52893066 7.328888l10.85553 0l-6.07003 -40.77482z" fill-rule="evenodd"/><path stroke="#1c4587" stroke-width="2.0" stroke-linejoin="round" stroke-linecap="butt" d="m108.229 41.908134l0 40.77482l10.603668 0l0 -40.77482z" fill-rule="evenodd"/><path stroke="#1c4587" stroke-width="2.0" stroke-linejoin="round" stroke-linecap="butt" d="m123.08924 41.908134l0 40.77482l8.865776 0l0 -18.5363l5.515915 18.5363l9.293961 0l0 -40.77482l-8.865784 0l0 18.36l-5.944092 -18.36z" fill-rule="evenodd"/></g></g></svg>