<svg version="1.1" viewBox="0.0 0.0 1920.0 124.61417322834646" fill="none" stroke="none" stroke-linecap="square" stroke-miterlimit="10" xmlns:xlink="http://www.w3.org/1999/xlink" xmlns="http://www.w3.org/2000/svg"><clipPath id="p.0"><path d="m0 0l1920.0 0l0 124.614174l-1920.0 0l0 -124.614174z" clip-rule="nonzero"/></clipPath><g clip-path="url(#p.0)"><path fill="#000000" fill-opacity="0.0" d="m0 0l1920.0 0l0 124.614174l-1920.0 0z" fill-rule="evenodd"/><g filter="url(#shadowFilter-p.1)"><use xlink:href="#p.1" transform="matrix(1.0 0.0 0.0 1.0 0.0 2.0)"/></g><defs><filter id="shadowFilter-p.1" filterUnits="userSpaceOnUse"><feGaussianBlur in="SourceAlpha" stdDeviation="2.0" result="blur"/><feComponentTransfer in="blur" color-interpolation-filters="sRGB"><feFuncR type="linear" slope="0" intercept="0.0"/><feFuncG type="linear" slope="0" intercept="0.0"/><feFuncB type="linear" slope="0" intercept="0.0"/><feFuncA type="linear" slope="0.5" intercept="0"/></feComponentTransfer></filter></defs><g id="p.1"><defs><linearGradient id="p.2" gradientUnits="userSpaceOnUse" gradientTransform="matrix(-8.907549146663126 0.0 0.0 -8.907549146663126 0.0 0.0)" spreadMethod="pad" x1="-218.46637812029303" y1="-8.009434539720408" x2="-218.46641495242096" y2="0.8981146068665695"><stop offset="0.0" stop-color="#1e50a2"/><stop offset="0.5" stop-color="#a0d8ef"/><stop offset="1.0" stop-color="#ffffff"/></linearGradient></defs><path fill="url(#p.2)" d="m1946.0 71.338585l-1615.4961 0l0 -79.338585l1615.4961 0z" fill-rule="evenodd"/><path stroke="#1c4587" stroke-width="3.0" stroke-linejoin="round" stroke-linecap="butt" d="m1946.0 71.338585l-1615.4961 0l0 -79.338585l1615.4961 0z" fill-rule="evenodd"/></g><g filter="url(#shadowFilter-p.3)"><use xlink:href="#p.3" transform="matrix(1.0 0.0 0.0 1.0 0.0 2.0)"/></g><defs><filter id="shadowFilter-p.3" filterUnits="userSpaceOnUse"><feGaussianBlur in="SourceAlpha" stdDeviation="2.0" result="blur"/><feComponentTransfer in="blur" color-interpolation-filters="sRGB"><feFuncR type="linear" slope="0" intercept="0.0"/><feFuncG type="linear" slope="0" intercept="0.0"/><feFuncB type="linear" slope="0" intercept="0.0"/><feFuncA type="linear" slope="0.5" intercept="0"/></feComponentTransfer></filter></defs><g id="p.3"><defs><linearGradient id="p.4" gradientUnits="userSpaceOnUse" gradientTransform="matrix(11.0290103729116 0.0 0.0 -11.0290103729116 0.0 0.0)" spreadMethod="pad" x1="-0.7253597312455916" y1="-10.303615955702197" x2="-0.7253996461660573" y2="0.7253944171371753"><stop offset="0.0" stop-color="#1e50a2"/><stop offset="0.5" stop-color="#a0d8ef"/><stop offset="1.0" stop-color="#ffffff"/></linearGradient></defs><path fill="url(#p.4)" d="m-8.0 113.63741l289.5433 0l0 0c16.130188 0 31.5997 -6.4076843 43.005463 -17.813446c11.405762 -11.405754 17.813446 -26.875275 17.813446 -43.00545l0 -60.818897l-350.3622 0z" fill-rule="evenodd"/><path stroke="#1c4587" stroke-width="3.0" stroke-linejoin="round" stroke-linecap="butt" d="m-8.0 113.63741l289.5433 0l0 0c16.130188 0 31.5997 -6.4076843 43.005463 -17.813446c11.405762 -11.405754 17.813446 -26.875275 17.813446 -43.00545l0 -60.818897l-350.3622 0z" fill-rule="evenodd"/></g><g filter="url(#shadowFilter-p.5)"><use xlink:href="#p.5" transform="matrix(1.0 0.0 0.0 1.0 0.0 2.0)"/></g><defs><filter id="shadowFilter-p.5" filterUnits="userSpaceOnUse"><feGaussianBlur in="SourceAlpha" stdDeviation="2.0" result="blur"/><feComponentTransfer in="blur" color-interpolation-filters="sRGB"><feFuncR type="linear" slope="0" intercept="0.0"/><feFuncG type="linear" slope="0" intercept="0.0"/><feFuncB type="linear" slope="0" intercept="0.0"/><feFuncA type="linear" slope="0.5" intercept="0"/></feComponentTransfer></filter></defs><g id="p.5"><defs><linearGradient id="p.6" gradientUnits="userSpaceOnUse" gradientTransform="matrix(6.5184957419462615 0.0 0.0 6.5184957419462615 0.0 0.0)" spreadMethod="pad" x1="49.162648502726206" y1="9.041902322461262" x2="49.16272085388721" y2="2.523406580916525"><stop offset="0.0" stop-color="#1e50a2"/><stop offset="0.5" stop-color="#a0d8ef"/><stop offset="1.0" stop-color="#ffffff"/></linearGradient></defs><path fill="url(#p.6)" d="m13.262463 17.305113l0 40.77482l10.603666 0l0 -40.77482z" fill-rule="evenodd"/><defs><linearGradient id="p.7" gradientUnits="userSpaceOnUse" gradientTransform="matrix(6.5184957419462615 0.0 0.0 6.5184957419462615 0.0 0.0)" spreadMethod="pad" x1="49.162648502726206" y1="9.041902322461262" x2="49.16272085388721" y2="2.523406580916525"><stop offset="0.0" stop-color="#1e50a2"/><stop offset="0.5" stop-color="#a0d8ef"/><stop offset="1.0" stop-color="#ffffff"/></linearGradient></defs><path fill="url(#p.7)" d="m38.72637 24.28141c1.158596 0 1.9477844 0.12312698 2.3675652 0.36938286c0.41978073 0.2406578 0.68844223 0.621233 0.8059807 1.1417274c0.11753845 0.52049446 0.17630768 1.7041988 0.17630768 3.5511112l0 15.841484c0 2.7200012 -0.17630768 4.3878174 -0.52892303 5.003456c-0.35261917 0.6100426 -1.2929268 0.91506195 -2.8209305 0.91506195l0 -26.822224zm-10.603664 -6.9762974l0 40.77482l13.374218 0c2.5354767 0 4.432888 -0.1371193 5.69223 -0.41135788c1.2593422 -0.27983856 2.317192 -0.76675034 3.1735458 -1.460743c0.85634995 -0.6995888 1.4552345 -1.66502 1.7966614 -2.8962936c0.34701538 -1.2368774 0.5205269 -3.6854324 0.5205269 -7.34568l0 -14.280003c0 -3.8617306 -0.11753845 -6.4502087 -0.35261536 -7.7654343c-0.2350769 -1.3208237 -0.82276917 -2.5185184 -1.7630806 -3.5930862c-0.9403076 -1.0745678 -2.314396 -1.8469143 -4.1222496 -2.3170376c-1.8022614 -0.4701233 -5.2640495 -0.70518494 -10.38538 -0.70518494z" fill-rule="evenodd"/><defs><linearGradient id="p.8" gradientUnits="userSpaceOnUse" gradientTransform="matrix(6.5184957419462615 0.0 0.0 6.5184957419462615 0.0 0.0)" spreadMethod="pad" x1="49.162648502726206" y1="9.041902322461262" x2="49.16272085388721" y2="2.523406580916525"><stop offset="0.0" stop-color="#1e50a2"/><stop offset="0.5" stop-color="#a0d8ef"/><stop offset="1.0" stop-color="#ffffff"/></linearGradient></defs><path fill="url(#p.8)" d="m56.634228 17.305113l0 40.77482l10.603664 0l0 -40.77482z" fill-rule="evenodd"/><defs><linearGradient id="p.9" gradientUnits="userSpaceOnUse" gradientTransform="matrix(6.5184957419462615 0.0 0.0 6.5184957419462615 0.0 0.0)" spreadMethod="pad" x1="49.162648502726206" y1="9.041902322461262" x2="49.16272085388721" y2="2.523406580916525"><stop offset="0.0" stop-color="#1e50a2"/><stop offset="0.5" stop-color="#a0d8ef"/><stop offset="1.0" stop-color="#ffffff"/></linearGradient></defs><path fill="url(#p.9)" d="m83.5086 23.349558c0.65486145 0 1.0858307 0.26584244 1.2929306 0.7975311c0.21268463 0.5260906 0.31903076 1.7377777 0.31903076 3.6350613l0 18.737782c0 2.4009857 -0.100746155 3.920494 -0.3022461 4.5585175c-0.20149231 0.6380272 -0.6632538 0.9570389 -1.3852768 0.9570389c-0.7052307 0 -1.1557999 -0.27703857 -1.3516922 -0.8311119c-0.19029999 -0.55407333 -0.2854538 -2.0148163 -0.2854538 -4.382221l0 -19.040005c0 -2.0987644 0.14552307 -3.3608227 0.43657684 -3.7861729c0.2966385 -0.43094635 0.722023 -0.6464195 1.2761307 -0.6464195zm-0.050369263 -6.9007416c-2.3003998 0 -4.3153534 0.3777771 -6.0448456 1.1333332c-1.7294998 0.7555561 -3.1035843 1.8385181 -4.1222534 3.24889c-1.0130692 1.4103699 -1.6175537 2.9690533 -1.8134537 4.6760483c-0.19029999 1.7014008 -0.28544617 4.6004963 -0.28544617 8.697285l0 6.9762993c0 4.1975327 0.100746155 7.135803 0.30223846 8.8148155c0.20149994 1.6790123 0.8311691 3.2320976 1.8890152 4.65926c1.0578461 1.4271622 2.4543152 2.498928 4.189415 3.2153091c1.7406921 0.7107811 3.7024689 1.0661736 5.88533 1.0661736c2.3003998 0 4.315346 -0.3777771 6.0448456 -1.1333351c1.7294922 -0.7555542 3.1007767 -1.8385162 4.1138535 -3.24889c1.0186615 -1.4103699 1.623146 -2.9662552 1.8134537 -4.667652c0.19589233 -1.7069969 0.29384613 -4.6088905 0.29384613 -8.705681l0 -6.9762993c0 -4.1975307 -0.100753784 -7.1358013 -0.3022461 -8.8148155c-0.20149231 -1.6790123 -0.8311615 -3.2320976 -1.8890152 -4.65926c-1.0578461 -1.4271603 -2.4571152 -2.496132 -4.1978073 -3.206913c-1.7350998 -0.71637917 -3.694069 -1.0745678 -5.87693 -1.0745678z" fill-rule="evenodd"/><defs><linearGradient id="p.10" gradientUnits="userSpaceOnUse" gradientTransform="matrix(6.5184957419462615 0.0 0.0 6.5184957419462615 0.0 0.0)" spreadMethod="pad" x1="49.162648502726206" y1="9.041902322461262" x2="49.16272085388721" y2="2.523406580916525"><stop offset="0.0" stop-color="#1e50a2"/><stop offset="0.5" stop-color="#a0d8ef"/><stop offset="1.0" stop-color="#ffffff"/></linearGradient></defs><path fill="url(#p.10)" d="m97.865105 17.305113l0 8.16l6.27153 0l0 32.614822l10.603668 0l0 -32.614822l6.296715 0l0 -8.16zm24.733498 0l0 8.16l7.20343 0l-8.16053 26.696302l0 5.918518l19.54499 0l0 -8.16l-7.908661 0l7.908661 -24.45482l0 -8.16z" fill-rule="evenodd"/><defs><linearGradient id="p.11" gradientUnits="userSpaceOnUse" gradientTransform="matrix(6.5184957419462615 0.0 0.0 6.5184957419462615 0.0 0.0)" spreadMethod="pad" x1="49.162648502726206" y1="9.041902322461262" x2="49.16272085388721" y2="2.523406580916525"><stop offset="0.0" stop-color="#1e50a2"/><stop offset="0.5" stop-color="#a0d8ef"/><stop offset="1.0" stop-color="#ffffff"/></linearGradient></defs><path fill="url(#p.11)" d="m155.946 23.349558c0.65486145 0 1.0858307 0.26584244 1.292923 0.7975311c0.21269226 0.5260906 0.31903076 1.7377777 0.31903076 3.6350613l0 18.737782c0 2.4009857 -0.100753784 3.920494 -0.3022461 4.5585175c-0.20149231 0.6380272 -0.6632538 0.9570389 -1.3852692 0.9570389c-0.7052307 0 -1.1557922 -0.27703857 -1.3516998 -0.8311119c-0.19029236 -0.55407333 -0.28544617 -2.0148163 -0.28544617 -4.382221l0 -19.040005c0 -2.0987644 0.14552307 -3.3608227 0.4365692 -3.7861729c0.29664612 -0.43094635 0.72203064 -0.6464195 1.2761383 -0.6464195zm-0.05038452 -6.9007416c-2.3003998 0 -4.315338 0.3777771 -6.0448456 1.1333332c-1.7294922 0.7555561 -3.1035767 1.8385181 -4.122238 3.24889c-1.0130768 1.4103699 -1.6175537 2.9690533 -1.8134613 4.6760483c-0.19029236 1.7014008 -0.28544617 4.6004963 -0.28544617 8.697285l0 6.9762993c0 4.1975327 0.100753784 7.135803 0.3022461 8.8148155c0.20149231 1.6790123 0.8311615 3.2320976 1.8890076 4.65926c1.0578461 1.4271622 2.4543152 2.498928 4.1894226 3.2153091c1.7406921 0.7107811 3.7024536 1.0661736 5.885315 1.0661736c2.3003998 0 4.3153534 -0.3777771 6.0448456 -1.1333351c1.7295074 -0.7555542 3.1007843 -1.8385162 4.113861 -3.24889c1.0186615 -1.4103699 1.6231537 -2.9662552 1.813446 -4.667652c0.1959076 -1.7069969 0.29385376 -4.6088905 0.29385376 -8.705681l0 -6.9762993c0 -4.1975307 -0.100753784 -7.1358013 -0.3022461 -8.8148155c-0.20149231 -1.6790123 -0.8311615 -3.2320976 -1.8890076 -4.65926c-1.0578461 -1.4271603 -2.4571228 -2.496132 -4.197815 -3.206913c-1.7350922 -0.71637917 -3.6940765 -1.0745678 -5.876938 -1.0745678z" fill-rule="evenodd"/><defs><linearGradient id="p.12" gradientUnits="userSpaceOnUse" gradientTransform="matrix(6.5184957419462615 0.0 0.0 6.5184957419462615 0.0 0.0)" spreadMethod="pad" x1="49.162648502726206" y1="9.041902322461262" x2="49.16272085388721" y2="2.523406580916525"><stop offset="0.0" stop-color="#1e50a2"/><stop offset="0.5" stop-color="#a0d8ef"/><stop offset="1.0" stop-color="#ffffff"/></linearGradient></defs><path fill="url(#p.12)" d="m172.11595 17.305113l0 40.77482l8.865784 0l0 -18.5363l5.515915 18.5363l9.293945 0l0 -40.77482l-8.865768 0l0 18.360003l-5.944092 -18.360003z" fill-rule="evenodd"/><defs><linearGradient id="p.13" gradientUnits="userSpaceOnUse" gradientTransform="matrix(6.5184957419462615 0.0 0.0 6.5184957419462615 0.0 0.0)" spreadMethod="pad" x1="49.162648502726206" y1="9.041902322461262" x2="49.16272085388721" y2="2.523406580916525"><stop offset="0.0" stop-color="#1e50a2"/><stop offset="0.5" stop-color="#a0d8ef"/><stop offset="1.0" stop-color="#ffffff"/></linearGradient></defs><path fill="url(#p.13)" d="m200.04817 17.305113l0 40.77482l18.386414 0l0 -8.16l-7.7827454 0l0 -8.965927l6.6241455 0l0 -7.757038l-6.6241455 0l0 -7.7318554l7.0775146 0l0 -8.16z" fill-rule="evenodd"/><defs><linearGradient id="p.14" gradientUnits="userSpaceOnUse" gradientTransform="matrix(6.5184957419462615 0.0 0.0 6.5184957419462615 0.0 0.0)" spreadMethod="pad" x1="49.162648502726206" y1="9.041902322461262" x2="49.16272085388721" y2="2.523406580916525"><stop offset="0.0" stop-color="#1e50a2"/><stop offset="0.5" stop-color="#a0d8ef"/><stop offset="1.0" stop-color="#ffffff"/></linearGradient></defs><path fill="url(#p.14)" d="m220.27322 49.76882l0 8.311111l7.6819916 0l0 -8.311111z" fill-rule="evenodd"/><defs><linearGradient id="p.15" gradientUnits="userSpaceOnUse" gradientTransform="matrix(6.5184957419462615 0.0 0.0 6.5184957419462615 0.0 0.0)" spreadMethod="pad" x1="49.162648502726206" y1="9.041902322461262" x2="49.16272085388721" y2="2.523406580916525"><stop offset="0.0" stop-color="#1e50a2"/><stop offset="0.5" stop-color="#a0d8ef"/><stop offset="1.0" stop-color="#ffffff"/></linearGradient></defs><path fill="url(#p.15)" d="m243.06732 16.448816c-2.3003998 0 -4.337738 0.3917694 -6.1119995 1.1753082c-1.7686768 0.77794266 -3.1539612 1.8469143 -4.155838 3.206915c-0.99627686 1.3599987 -1.5951691 2.7759666 -1.7966614 4.2479c-0.20149231 1.4663391 -0.3022461 3.668644 -0.3022461 6.6069164l0 11.912594c0 3.996048 0.32743835 6.990288 0.98228455 8.982716c0.65486145 1.9868317 1.9897614 3.542717 4.004715 4.667656c2.0149536 1.124939 4.5756073 1.6874084 7.6819916 1.6874084c2.9888458 0 5.5019226 -0.6632118 7.539261 -1.9896317c2.0429382 -1.3264198 3.3610535 -2.871109 3.9543457 -4.634075c0.59887695 -1.7629623 0.8983307 -4.751602 0.8983307 -8.965927l0 -1.5866661l-10.603668 0l0 5.1125946c0 2.2330856 -0.12313843 3.6518517 -0.36941528 4.256298c-0.24067688 0.6044426 -0.7556 0.9066658 -1.5447845 0.9066658c-0.82276917 0 -1.3516998 -0.3022232 -1.5867767 -0.9066658c-0.2350769 -0.6044464 -0.35261536 -1.8972855 -0.35261536 -3.878521l0 -18.939262c0 -2.0651855 0.11753845 -3.4083958 0.35261536 -4.0296288c0.2350769 -0.6212349 0.7891846 -0.93185234 1.6623383 -0.93185234c0.7723999 0 1.2705231 0.2574482 1.4944153 0.7723446c0.22947693 0.50930023 0.34422302 1.796545 0.34422302 3.8617306l0 7.1022205l10.603668 0l0 -3.8785172c0 -3.8113594 -0.31903076 -6.6181087 -0.95710754 -8.420248c-0.6380615 -1.8077374 -1.9729614 -3.3160496 -4.0046997 -4.5249386c-2.0317535 -1.208889 -4.609207 -1.8133335 -7.732376 -1.8133335z" fill-rule="evenodd"/><defs><linearGradient id="p.16" gradientUnits="userSpaceOnUse" gradientTransform="matrix(6.5184957419462615 0.0 0.0 6.5184957419462615 0.0 0.0)" spreadMethod="pad" x1="49.162648502726206" y1="9.041902322461262" x2="49.16272085388721" y2="2.523406580916525"><stop offset="0.0" stop-color="#1e50a2"/><stop offset="0.5" stop-color="#a0d8ef"/><stop offset="1.0" stop-color="#ffffff"/></linearGradient></defs><path fill="url(#p.16)" d="m271.57886 23.349558c0.6548462 0 1.0858154 0.26584244 1.2929077 0.7975311c0.212677 0.5260906 0.31903076 1.7377777 0.31903076 3.6350613l0 18.737782c0 2.4009857 -0.100738525 3.920494 -0.3022461 4.5585175c-0.20147705 0.6380272 -0.6632385 0.9570389 -1.3852539 0.9570389c-0.7052307 0 -1.1558228 -0.27703857 -1.3517151 -0.8311119c-0.19030762 -0.55407333 -0.2854309 -2.0148163 -0.2854309 -4.382221l0 -19.040005c0 -2.0987644 0.14550781 -3.3608227 0.43655396 -3.7861729c0.29666138 -0.43094635 0.7220459 -0.6464195 1.2761536 -0.6464195zm-0.05038452 -6.9007416c-2.300415 0 -4.315338 0.3777771 -6.044861 1.1333332c-1.7294922 0.7555561 -3.1035767 1.8385181 -4.122223 3.24889c-1.013092 1.4103699 -1.6175842 2.9690533 -1.8134766 4.6760483c-0.1902771 1.7014008 -0.2854309 4.6004963 -0.2854309 8.697285l0 6.9762993c0 4.1975327 0.100738525 7.135803 0.3022461 8.8148155c0.20147705 1.6790123 0.83114624 3.2320976 1.8890076 4.65926c1.0578308 1.4271622 2.4543152 2.498928 4.1894226 3.2153091c1.7406616 0.7107811 3.7024536 1.0661736 5.885315 1.0661736c2.3003845 0 4.315338 -0.3777771 6.0448303 -1.1333351c1.7295227 -0.7555542 3.1007996 -1.8385162 4.113861 -3.24889c1.0186768 -1.4103699 1.623169 -2.9662552 1.813446 -4.667652c0.19592285 -1.7069969 0.29385376 -4.6088905 0.29385376 -8.705681l0 -6.9762993c0 -4.1975307 -0.100738525 -7.1358013 -0.3022461 -8.8148155c-0.20147705 -1.6790123 -0.83114624 -3.2320976 -1.8890076 -4.65926c-1.0578308 -1.4271603 -2.4571228 -2.496132 -4.197815 -3.206913c-1.7350769 -0.71637917 -3.6940613 -1.0745678 -5.8769226 -1.0745678z" fill-rule="evenodd"/><defs><linearGradient id="p.17" gradientUnits="userSpaceOnUse" gradientTransform="matrix(6.5184957419462615 0.0 0.0 6.5184957419462615 0.0 0.0)" spreadMethod="pad" x1="49.162648502726206" y1="9.041902322461262" x2="49.16272085388721" y2="2.523406580916525"><stop offset="0.0" stop-color="#1e50a2"/><stop offset="0.5" stop-color="#a0d8ef"/><stop offset="1.0" stop-color="#ffffff"/></linearGradient></defs><path fill="url(#p.17)" d="m287.7488 17.305113l0 40.77482l9.268768 0l0 -26.897781l3.9039612 26.897781l6.573761 0l3.7024536 -27.527412l0 27.527412l9.268768 0l0 -40.77482l-13.827576 0l-2.4179382 19.040003l-1.460846 -10.376299c-0.45333862 -3.3244438 -0.88153076 -6.212347 -1.2845154 -8.663704z" fill-rule="evenodd"/><path stroke="#1c4587" stroke-width="2.0" stroke-linejoin="round" stroke-linecap="butt" d="m13.262463 17.305113l0 40.77482l10.603666 0l0 -40.77482z" fill-rule="evenodd"/><path stroke="#1c4587" stroke-width="2.0" stroke-linejoin="round" stroke-linecap="butt" d="m38.72637 24.28141c1.158596 0 1.9477844 0.12312698 2.3675652 0.36938286c0.41978073 0.2406578 0.68844223 0.621233 0.8059807 1.1417274c0.11753845 0.52049446 0.17630768 1.7041988 0.17630768 3.5511112l0 15.841484c0 2.7200012 -0.17630768 4.3878174 -0.52892303 5.003456c-0.35261917 0.6100426 -1.2929268 0.91506195 -2.8209305 0.91506195l0 -26.822224zm-10.603664 -6.9762974l0 40.77482l13.374218 0c2.5354767 0 4.432888 -0.1371193 5.69223 -0.41135788c1.2593422 -0.27983856 2.317192 -0.76675034 3.1735458 -1.460743c0.85634995 -0.6995888 1.4552345 -1.66502 1.7966614 -2.8962936c0.34701538 -1.2368774 0.5205269 -3.6854324 0.5205269 -7.34568l0 -14.280003c0 -3.8617306 -0.11753845 -6.4502087 -0.35261536 -7.7654343c-0.2350769 -1.3208237 -0.82276917 -2.5185184 -1.7630806 -3.5930862c-0.9403076 -1.0745678 -2.314396 -1.8469143 -4.1222496 -2.3170376c-1.8022614 -0.4701233 -5.2640495 -0.70518494 -10.38538 -0.70518494z" fill-rule="evenodd"/><path stroke="#1c4587" stroke-width="2.0" stroke-linejoin="round" stroke-linecap="butt" d="m56.634228 17.305113l0 40.77482l10.603664 0l0 -40.77482z" fill-rule="evenodd"/><path stroke="#1c4587" stroke-width="2.0" stroke-linejoin="round" stroke-linecap="butt" d="m83.5086 23.349558c0.65486145 0 1.0858307 0.26584244 1.2929306 0.7975311c0.21268463 0.5260906 0.31903076 1.7377777 0.31903076 3.6350613l0 18.737782c0 2.4009857 -0.100746155 3.920494 -0.3022461 4.5585175c-0.20149231 0.6380272 -0.6632538 0.9570389 -1.3852768 0.9570389c-0.7052307 0 -1.1557999 -0.27703857 -1.3516922 -0.8311119c-0.19029999 -0.55407333 -0.2854538 -2.0148163 -0.2854538 -4.382221l0 -19.040005c0 -2.0987644 0.14552307 -3.3608227 0.43657684 -3.7861729c0.2966385 -0.43094635 0.722023 -0.6464195 1.2761307 -0.6464195zm-0.050369263 -6.9007416c-2.3003998 0 -4.3153534 0.3777771 -6.0448456 1.1333332c-1.7294998 0.7555561 -3.1035843 1.8385181 -4.1222534 3.24889c-1.0130692 1.4103699 -1.6175537 2.9690533 -1.8134537 4.6760483c-0.19029999 1.7014008 -0.28544617 4.6004963 -0.28544617 8.697285l0 6.9762993c0 4.1975327 0.100746155 7.135803 0.30223846 8.8148155c0.20149994 1.6790123 0.8311691 3.2320976 1.8890152 4.65926c1.0578461 1.4271622 2.4543152 2.498928 4.189415 3.2153091c1.7406921 0.7107811 3.7024689 1.0661736 5.88533 1.0661736c2.3003998 0 4.315346 -0.3777771 6.0448456 -1.1333351c1.7294922 -0.7555542 3.1007767 -1.8385162 4.1138535 -3.24889c1.0186615 -1.4103699 1.623146 -2.9662552 1.8134537 -4.667652c0.19589233 -1.7069969 0.29384613 -4.6088905 0.29384613 -8.705681l0 -6.9762993c0 -4.1975307 -0.100753784 -7.1358013 -0.3022461 -8.8148155c-0.20149231 -1.6790123 -0.8311615 -3.2320976 -1.8890152 -4.65926c-1.0578461 -1.4271603 -2.4571152 -2.496132 -4.1978073 -3.206913c-1.7350998 -0.71637917 -3.694069 -1.0745678 -5.87693 -1.0745678z" fill-rule="evenodd"/><path stroke="#1c4587" stroke-width="2.0" stroke-linejoin="round" stroke-linecap="butt" d="m97.865105 17.305113l0 8.16l6.27153 0l0 32.614822l10.603668 0l0 -32.614822l6.296715 0l0 -8.16zm24.733498 0l0 8.16l7.20343 0l-8.16053 26.696302l0 5.918518l19.54499 0l0 -8.16l-7.908661 0l7.908661 -24.45482l0 -8.16z" fill-rule="evenodd"/><path stroke="#1c4587" stroke-width="2.0" stroke-linejoin="round" stroke-linecap="butt" d="m155.946 23.349558c0.65486145 0 1.0858307 0.26584244 1.292923 0.7975311c0.21269226 0.5260906 0.31903076 1.7377777 0.31903076 3.6350613l0 18.737782c0 2.4009857 -0.100753784 3.920494 -0.3022461 4.5585175c-0.20149231 0.6380272 -0.6632538 0.9570389 -1.3852692 0.9570389c-0.7052307 0 -1.1557922 -0.27703857 -1.3516998 -0.8311119c-0.19029236 -0.55407333 -0.28544617 -2.0148163 -0.28544617 -4.382221l0 -19.040005c0 -2.0987644 0.14552307 -3.3608227 0.4365692 -3.7861729c0.29664612 -0.43094635 0.72203064 -0.6464195 1.2761383 -0.6464195zm-0.05038452 -6.9007416c-2.3003998 0 -4.315338 0.3777771 -6.0448456 1.1333332c-1.7294922 0.7555561 -3.1035767 1.8385181 -4.122238 3.24889c-1.0130768 1.4103699 -1.6175537 2.9690533 -1.8134613 4.6760483c-0.19029236 1.7014008 -0.28544617 4.6004963 -0.28544617 8.697285l0 6.9762993c0 4.1975327 0.100753784 7.135803 0.3022461 8.8148155c0.20149231 1.6790123 0.8311615 3.2320976 1.8890076 4.65926c1.0578461 1.4271622 2.4543152 2.498928 4.1894226 3.2153091c1.7406921 0.7107811 3.7024536 1.0661736 5.885315 1.0661736c2.3003998 0 4.3153534 -0.3777771 6.0448456 -1.1333351c1.7295074 -0.7555542 3.1007843 -1.8385162 4.113861 -3.24889c1.0186615 -1.4103699 1.6231537 -2.9662552 1.813446 -4.667652c0.1959076 -1.7069969 0.29385376 -4.6088905 0.29385376 -8.705681l0 -6.9762993c0 -4.1975307 -0.100753784 -7.1358013 -0.3022461 -8.8148155c-0.20149231 -1.6790123 -0.8311615 -3.2320976 -1.8890076 -4.65926c-1.0578461 -1.4271603 -2.4571228 -2.496132 -4.197815 -3.206913c-1.7350922 -0.71637917 -3.6940765 -1.0745678 -5.876938 -1.0745678z" fill-rule="evenodd"/><path stroke="#1c4587" stroke-width="2.0" stroke-linejoin="round" stroke-linecap="butt" d="m172.11595 17.305113l0 40.77482l8.865784 0l0 -18.5363l5.515915 18.5363l9.293945 0l0 -40.77482l-8.865768 0l0 18.360003l-5.944092 -18.360003z" fill-rule="evenodd"/><path stroke="#1c4587" stroke-width="2.0" stroke-linejoin="round" stroke-linecap="butt" d="m200.04817 17.305113l0 40.77482l18.386414 0l0 -8.16l-7.7827454 0l0 -8.965927l6.6241455 0l0 -7.757038l-6.6241455 0l0 -7.7318554l7.0775146 0l0 -8.16z" fill-rule="evenodd"/><path stroke="#1c4587" stroke-width="2.0" stroke-linejoin="round" stroke-linecap="butt" d="m220.27322 49.76882l0 8.311111l7.6819916 0l0 -8.311111z" fill-rule="evenodd"/><path stroke="#1c4587" stroke-width="2.0" stroke-linejoin="round" stroke-linecap="butt" d="m243.06732 16.448816c-2.3003998 0 -4.337738 0.3917694 -6.1119995 1.1753082c-1.7686768 0.77794266 -3.1539612 1.8469143 -4.155838 3.206915c-0.99627686 1.3599987 -1.5951691 2.7759666 -1.7966614 4.2479c-0.20149231 1.4663391 -0.3022461 3.668644 -0.3022461 6.6069164l0 11.912594c0 3.996048 0.32743835 6.990288 0.98228455 8.982716c0.65486145 1.9868317 1.9897614 3.542717 4.004715 4.667656c2.0149536 1.124939 4.5756073 1.6874084 7.6819916 1.6874084c2.9888458 0 5.5019226 -0.6632118 7.539261 -1.9896317c2.0429382 -1.3264198 3.3610535 -2.871109 3.9543457 -4.634075c0.59887695 -1.7629623 0.8983307 -4.751602 0.8983307 -8.965927l0 -1.5866661l-10.603668 0l0 5.1125946c0 2.2330856 -0.12313843 3.6518517 -0.36941528 4.256298c-0.24067688 0.6044426 -0.7556 0.9066658 -1.5447845 0.9066658c-0.82276917 0 -1.3516998 -0.3022232 -1.5867767 -0.9066658c-0.2350769 -0.6044464 -0.35261536 -1.8972855 -0.35261536 -3.878521l0 -18.939262c0 -2.0651855 0.11753845 -3.4083958 0.35261536 -4.0296288c0.2350769 -0.6212349 0.7891846 -0.93185234 1.6623383 -0.93185234c0.7723999 0 1.2705231 0.2574482 1.4944153 0.7723446c0.22947693 0.50930023 0.34422302 1.796545 0.34422302 3.8617306l0 7.1022205l10.603668 0l0 -3.8785172c0 -3.8113594 -0.31903076 -6.6181087 -0.95710754 -8.420248c-0.6380615 -1.8077374 -1.9729614 -3.3160496 -4.0046997 -4.5249386c-2.0317535 -1.208889 -4.609207 -1.8133335 -7.732376 -1.8133335z" fill-rule="evenodd"/><path stroke="#1c4587" stroke-width="2.0" stroke-linejoin="round" stroke-linecap="butt" d="m271.57886 23.349558c0.6548462 0 1.0858154 0.26584244 1.2929077 0.7975311c0.212677 0.5260906 0.31903076 1.7377777 0.31903076 3.6350613l0 18.737782c0 2.4009857 -0.100738525 3.920494 -0.3022461 4.5585175c-0.20147705 0.6380272 -0.6632385 0.9570389 -1.3852539 0.9570389c-0.7052307 0 -1.1558228 -0.27703857 -1.3517151 -0.8311119c-0.19030762 -0.55407333 -0.2854309 -2.0148163 -0.2854309 -4.382221l0 -19.040005c0 -2.0987644 0.14550781 -3.3608227 0.43655396 -3.7861729c0.29666138 -0.43094635 0.7220459 -0.6464195 1.2761536 -0.6464195zm-0.05038452 -6.9007416c-2.300415 0 -4.315338 0.3777771 -6.044861 1.1333332c-1.7294922 0.7555561 -3.1035767 1.8385181 -4.122223 3.24889c-1.013092 1.4103699 -1.6175842 2.9690533 -1.8134766 4.6760483c-0.1902771 1.7014008 -0.2854309 4.6004963 -0.2854309 8.697285l0 6.9762993c0 4.1975327 0.100738525 7.135803 0.3022461 8.8148155c0.20147705 1.6790123 0.83114624 3.2320976 1.8890076 4.65926c1.0578308 1.4271622 2.4543152 2.498928 4.1894226 3.2153091c1.7406616 0.7107811 3.7024536 1.0661736 5.885315 1.0661736c2.3003845 0 4.315338 -0.3777771 6.0448303 -1.1333351c1.7295227 -0.7555542 3.1007996 -1.8385162 4.113861 -3.24889c1.0186768 -1.4103699 1.623169 -2.9662552 1.813446 -4.667652c0.19592285 -1.7069969 0.29385376 -4.6088905 0.29385376 -8.705681l0 -6.9762993c0 -4.1975307 -0.100738525 -7.1358013 -0.3022461 -8.8148155c-0.20147705 -1.6790123 -0.83114624 -3.2320976 -1.8890076 -4.65926c-1.0578308 -1.4271603 -2.4571228 -2.496132 -4.197815 -3.206913c-1.7350769 -0.71637917 -3.6940613 -1.0745678 -5.8769226 -1.0745678z" fill-rule="evenodd"/><path stroke="#1c4587" stroke-width="2.0" stroke-linejoin="round" stroke-linecap="butt" d="m287.7488 17.305113l0 40.77482l9.268768 0l0 -26.897781l3.9039612 26.897781l6.573761 0l3.7024536 -27.527412l0 27.527412l9.268768 0l0 -40.77482l-13.827576 0l-2.4179382 19.040003l-1.460846 -10.376299c-0.45333862 -3.3244438 -0.88153076 -6.212347 -1.2845154 -8.663704z" fill-rule="evenodd"/></g></g></svg>